<?xml version="1.0" encoding="UTF-8"?>
<!DOCTYPE svg PUBLIC "-//W3C//DTD SVG 1.1//EN"
    "http://www.w3.org/Graphics/SVG/1.1/DTD/svg11.dtd">
<svg xmlns="http://www.w3.org/2000/svg" xmlns:xlink="http://www.w3.org/1999/xlink" version="1.1" width="500.0" height="483.9351238310498" font-size="1" viewBox="0 0 500 484"><g><g transform="matrix(43.99410216645908,0.0,0.0,43.99410216645908,250.0,241.9675619155249)"><g stroke="rgb(0,0,0)" stroke-opacity="1.0" fill="rgb(0,0,0)" fill-opacity="0.0" stroke-width="2.0e-2" stroke-linecap="butt" stroke-linejoin="miter" font-size="1.0em" stroke-miterlimit="10.0"><path d="M 4.834018286978497,4.0 c 0.0,-0.5522847498307935 -0.44771525016920644,-1.0 -0.9999999999999998 -1.0c -0.5522847498307935,-3.3817687554908895e-17 -1.0,0.4477152501692064 -1.0 0.9999999999999997c -6.763537510981779e-17,0.5522847498307935 0.4477152501692063,1.0 0.9999999999999996 1.0c 0.5522847498307935,1.0145306266472669e-16 1.0,-0.44771525016920627 1.0000000000000002 -0.9999999999999997Z" /></g></g><g transform="matrix(43.99410216645908,0.0,0.0,43.99410216645908,250.0,241.9675619155249)"><g stroke="rgb(0,0,0)" stroke-opacity="1.0" fill="rgb(255,0,0)" fill-opacity="1.0" stroke-width="0.0" stroke-linecap="butt" stroke-linejoin="miter" font-size="1.0em" stroke-miterlimit="10.0"><path d="M 3.8740182869784974,4.0 c 0.0,-2.2091389993231736e-2 -1.7908610006768255e-2,-3.9999999999999994e-2 -3.999999999999999e-2 -3.9999999999999994e-2c -2.2091389993231736e-2,-1.3527075021963557e-18 -3.9999999999999994e-2,1.790861000676825e-2 -3.9999999999999994e-2 3.999999999999998e-2c -2.7054150043927113e-18,2.2091389993231736e-2 1.790861000676825e-2,3.9999999999999994e-2 3.999999999999997e-2 3.9999999999999994e-2c 2.2091389993231736e-2,4.058122506589067e-18 3.9999999999999994e-2,-1.7908610006768248e-2 4.0000000000000015e-2 -3.999999999999998e-2Z" /></g></g><g transform="matrix(43.99410216645908,0.0,0.0,43.99410216645908,250.0,241.9675619155249)"><g stroke="rgb(0,0,0)" stroke-opacity="1.0" fill="rgb(0,0,0)" fill-opacity="0.0" stroke-width="1.0e-2" stroke-linecap="butt" stroke-linejoin="miter" font-size="1.0em" stroke-miterlimit="10.0"></g></g><g transform="matrix(43.99410216645908,0.0,0.0,43.99410216645908,250.0,241.9675619155249)"><g stroke="rgb(0,0,0)" stroke-opacity="1.0" fill="rgb(0,0,0)" fill-opacity="0.0" stroke-width="2.0e-2" stroke-linecap="butt" stroke-linejoin="miter" font-size="1.0em" stroke-miterlimit="10.0"><path d="M 0.8340182869784973,4.0 c 0.0,-0.5522847498307935 -0.44771525016920644,-1.0 -0.9999999999999998 -1.0c -0.5522847498307935,-3.3817687554908895e-17 -1.0,0.4477152501692064 -1.0 0.9999999999999997c -6.763537510981779e-17,0.5522847498307935 0.4477152501692063,1.0 0.9999999999999996 1.0c 0.5522847498307935,1.0145306266472669e-16 1.0,-0.44771525016920627 1.0000000000000002 -0.9999999999999997Z" /></g></g><g transform="matrix(43.99410216645908,0.0,0.0,43.99410216645908,250.0,241.9675619155249)"><g stroke="rgb(0,0,0)" stroke-opacity="1.0" fill="rgb(255,0,0)" fill-opacity="1.0" stroke-width="0.0" stroke-linecap="butt" stroke-linejoin="miter" font-size="1.0em" stroke-miterlimit="10.0"><path d="M -0.12598171302150268,4.0 c 0.0,-2.2091389993231736e-2 -1.7908610006768255e-2,-3.9999999999999994e-2 -3.999999999999999e-2 -3.9999999999999994e-2c -2.2091389993231736e-2,-1.3527075021963557e-18 -3.9999999999999994e-2,1.790861000676825e-2 -3.9999999999999994e-2 3.999999999999998e-2c -2.7054150043927113e-18,2.2091389993231736e-2 1.790861000676825e-2,3.9999999999999994e-2 3.999999999999997e-2 3.9999999999999994e-2c 2.2091389993231736e-2,4.058122506589067e-18 3.9999999999999994e-2,-1.7908610006768248e-2 4.0000000000000015e-2 -3.999999999999998e-2Z" /></g></g><g transform="matrix(43.99410216645908,0.0,0.0,43.99410216645908,250.0,241.9675619155249)"><g stroke="rgb(0,0,0)" stroke-opacity="1.0" fill="rgb(0,0,0)" fill-opacity="0.0" stroke-width="1.0e-2" stroke-linecap="butt" stroke-linejoin="miter" font-size="1.0em" stroke-miterlimit="10.0"></g></g><g transform="matrix(43.99410216645908,0.0,0.0,43.99410216645908,250.0,241.9675619155249)"><g stroke="rgb(0,0,0)" stroke-opacity="1.0" fill="rgb(0,0,0)" fill-opacity="0.0" stroke-width="2.0e-2" stroke-linecap="butt" stroke-linejoin="miter" font-size="1.0em" stroke-miterlimit="10.0"><path d="M -3.1659817130215027,4.0 c 0.0,-0.5522847498307935 -0.44771525016920644,-1.0 -0.9999999999999998 -1.0c -0.5522847498307935,-3.3817687554908895e-17 -1.0,0.4477152501692064 -1.0 0.9999999999999997c -6.763537510981779e-17,0.5522847498307935 0.4477152501692063,1.0 0.9999999999999996 1.0c 0.5522847498307935,1.0145306266472669e-16 1.0,-0.44771525016920627 1.0000000000000002 -0.9999999999999997Z" /></g></g><g transform="matrix(43.99410216645908,0.0,0.0,43.99410216645908,250.0,241.9675619155249)"><g stroke="rgb(0,0,0)" stroke-opacity="1.0" fill="rgb(255,0,0)" fill-opacity="1.0" stroke-width="0.0" stroke-linecap="butt" stroke-linejoin="miter" font-size="1.0em" stroke-miterlimit="10.0"><path d="M -4.125981713021503,4.0 c 0.0,-2.2091389993231736e-2 -1.7908610006768255e-2,-3.9999999999999994e-2 -3.999999999999999e-2 -3.9999999999999994e-2c -2.2091389993231736e-2,-1.3527075021963557e-18 -3.9999999999999994e-2,1.790861000676825e-2 -3.9999999999999994e-2 3.999999999999998e-2c -2.7054150043927113e-18,2.2091389993231736e-2 1.790861000676825e-2,3.9999999999999994e-2 3.999999999999997e-2 3.9999999999999994e-2c 2.2091389993231736e-2,4.058122506589067e-18 3.9999999999999994e-2,-1.7908610006768248e-2 4.0000000000000015e-2 -3.999999999999998e-2Z" /></g></g><g transform="matrix(43.99410216645908,0.0,0.0,43.99410216645908,250.0,241.9675619155249)"><g stroke="rgb(0,0,0)" stroke-opacity="1.0" fill="rgb(0,0,0)" fill-opacity="0.0" stroke-width="1.0e-2" stroke-linecap="butt" stroke-linejoin="miter" font-size="1.0em" stroke-miterlimit="10.0"></g></g><g transform="matrix(43.99410216645908,0.0,0.0,43.99410216645908,250.0,241.9675619155249)"><g stroke="rgb(0,0,0)" stroke-opacity="1.0" fill="rgb(0,0,0)" fill-opacity="0.0" stroke-width="2.0e-2" stroke-linecap="butt" stroke-linejoin="miter" font-size="1.0em" stroke-miterlimit="10.0"><path d="M 4.834018286978497,4.440892098500626e-16 c 0.0,-0.5522847498307935 -0.44771525016920644,-1.0 -0.9999999999999998 -1.0c -0.5522847498307935,-3.3817687554908895e-17 -1.0,0.4477152501692064 -1.0 0.9999999999999997c -6.763537510981779e-17,0.5522847498307935 0.4477152501692063,1.0 0.9999999999999996 1.0c 0.5522847498307935,1.0145306266472669e-16 1.0,-0.44771525016920627 1.0000000000000002 -0.9999999999999997Z" /></g></g><g transform="matrix(43.99410216645908,0.0,0.0,43.99410216645908,250.0,241.9675619155249)"><g stroke="rgb(0,0,0)" stroke-opacity="1.0" fill="rgb(255,0,0)" fill-opacity="1.0" stroke-width="0.0" stroke-linecap="butt" stroke-linejoin="miter" font-size="1.0em" stroke-miterlimit="10.0"><path d="M 3.8740182869784974,4.440892098500626e-16 c 0.0,-2.2091389993231736e-2 -1.7908610006768255e-2,-3.9999999999999994e-2 -3.999999999999999e-2 -3.9999999999999994e-2c -2.2091389993231736e-2,-1.3527075021963557e-18 -3.9999999999999994e-2,1.790861000676825e-2 -3.9999999999999994e-2 3.999999999999998e-2c -2.7054150043927113e-18,2.2091389993231736e-2 1.790861000676825e-2,3.9999999999999994e-2 3.999999999999997e-2 3.9999999999999994e-2c 2.2091389993231736e-2,4.058122506589067e-18 3.9999999999999994e-2,-1.7908610006768248e-2 4.0000000000000015e-2 -3.999999999999998e-2Z" /></g></g><g transform="matrix(43.99410216645908,0.0,0.0,43.99410216645908,250.0,241.9675619155249)"><g stroke="rgb(0,0,0)" stroke-opacity="1.0" fill="rgb(0,0,0)" fill-opacity="0.0" stroke-width="1.0e-2" stroke-linecap="butt" stroke-linejoin="miter" font-size="1.0em" stroke-miterlimit="10.0"></g></g><g transform="matrix(43.99410216645908,0.0,0.0,43.99410216645908,250.0,241.9675619155249)"><g stroke="rgb(0,0,0)" stroke-opacity="1.0" fill="rgb(0,0,0)" fill-opacity="0.0" stroke-width="2.0e-2" stroke-linecap="butt" stroke-linejoin="miter" font-size="1.0em" stroke-miterlimit="10.0"><path d="M 0.8340182869784973,4.440892098500626e-16 c 0.0,-0.5522847498307935 -0.44771525016920644,-1.0 -0.9999999999999998 -1.0c -0.5522847498307935,-3.3817687554908895e-17 -1.0,0.4477152501692064 -1.0 0.9999999999999997c -6.763537510981779e-17,0.5522847498307935 0.4477152501692063,1.0 0.9999999999999996 1.0c 0.5522847498307935,1.0145306266472669e-16 1.0,-0.44771525016920627 1.0000000000000002 -0.9999999999999997Z" /></g></g><g transform="matrix(43.99410216645908,0.0,0.0,43.99410216645908,250.0,241.9675619155249)"><g stroke="rgb(0,0,0)" stroke-opacity="1.0" fill="rgb(255,0,0)" fill-opacity="1.0" stroke-width="0.0" stroke-linecap="butt" stroke-linejoin="miter" font-size="1.0em" stroke-miterlimit="10.0"><path d="M -0.12598171302150268,4.440892098500626e-16 c 0.0,-2.2091389993231736e-2 -1.7908610006768255e-2,-3.9999999999999994e-2 -3.999999999999999e-2 -3.9999999999999994e-2c -2.2091389993231736e-2,-1.3527075021963557e-18 -3.9999999999999994e-2,1.790861000676825e-2 -3.9999999999999994e-2 3.999999999999998e-2c -2.7054150043927113e-18,2.2091389993231736e-2 1.790861000676825e-2,3.9999999999999994e-2 3.999999999999997e-2 3.9999999999999994e-2c 2.2091389993231736e-2,4.058122506589067e-18 3.9999999999999994e-2,-1.7908610006768248e-2 4.0000000000000015e-2 -3.999999999999998e-2Z" /></g></g><g transform="matrix(43.99410216645908,0.0,0.0,43.99410216645908,250.0,241.9675619155249)"><g stroke="rgb(0,0,0)" stroke-opacity="1.0" fill="rgb(0,0,0)" fill-opacity="0.0" stroke-width="1.0e-2" stroke-linecap="butt" stroke-linejoin="miter" font-size="1.0em" stroke-miterlimit="10.0"></g></g><g transform="matrix(43.99410216645908,0.0,0.0,43.99410216645908,250.0,241.9675619155249)"><g stroke="rgb(0,0,0)" stroke-opacity="1.0" fill="rgb(0,0,0)" fill-opacity="0.0" stroke-width="2.0e-2" stroke-linecap="butt" stroke-linejoin="miter" font-size="1.0em" stroke-miterlimit="10.0"><path d="M -3.1659817130215027,4.440892098500626e-16 c 0.0,-0.5522847498307935 -0.44771525016920644,-1.0 -0.9999999999999998 -1.0c -0.5522847498307935,-3.3817687554908895e-17 -1.0,0.4477152501692064 -1.0 0.9999999999999997c -6.763537510981779e-17,0.5522847498307935 0.4477152501692063,1.0 0.9999999999999996 1.0c 0.5522847498307935,1.0145306266472669e-16 1.0,-0.44771525016920627 1.0000000000000002 -0.9999999999999997Z" /></g></g><g transform="matrix(43.99410216645908,0.0,0.0,43.99410216645908,250.0,241.9675619155249)"><g stroke="rgb(0,0,0)" stroke-opacity="1.0" fill="rgb(255,0,0)" fill-opacity="1.0" stroke-width="0.0" stroke-linecap="butt" stroke-linejoin="miter" font-size="1.0em" stroke-miterlimit="10.0"><path d="M -4.125981713021503,4.440892098500626e-16 c 0.0,-2.2091389993231736e-2 -1.7908610006768255e-2,-3.9999999999999994e-2 -3.999999999999999e-2 -3.9999999999999994e-2c -2.2091389993231736e-2,-1.3527075021963557e-18 -3.9999999999999994e-2,1.790861000676825e-2 -3.9999999999999994e-2 3.999999999999998e-2c -2.7054150043927113e-18,2.2091389993231736e-2 1.790861000676825e-2,3.9999999999999994e-2 3.999999999999997e-2 3.9999999999999994e-2c 2.2091389993231736e-2,4.058122506589067e-18 3.9999999999999994e-2,-1.7908610006768248e-2 4.0000000000000015e-2 -3.999999999999998e-2Z" /></g></g><g transform="matrix(43.99410216645908,0.0,0.0,43.99410216645908,250.0,241.9675619155249)"><g stroke="rgb(0,0,0)" stroke-opacity="1.0" fill="rgb(0,0,0)" fill-opacity="0.0" stroke-width="1.0e-2" stroke-linecap="butt" stroke-linejoin="miter" font-size="1.0em" stroke-miterlimit="10.0"></g></g><g transform="matrix(43.99410216645908,0.0,0.0,43.99410216645908,250.0,241.9675619155249)"><g stroke="rgb(0,0,0)" stroke-opacity="1.0" fill="rgb(0,0,0)" fill-opacity="0.0" stroke-width="2.0e-2" stroke-linecap="butt" stroke-linejoin="miter" font-size="1.0em" stroke-miterlimit="10.0"><path d="M 4.834018286978497,-3.999999999999999 c 0.0,-0.5522847498307935 -0.44771525016920644,-1.0 -0.9999999999999998 -1.0c -0.5522847498307935,-3.3817687554908895e-17 -1.0,0.4477152501692064 -1.0 0.9999999999999997c -6.763537510981779e-17,0.5522847498307935 0.4477152501692063,1.0 0.9999999999999996 1.0c 0.5522847498307935,1.0145306266472669e-16 1.0,-0.44771525016920627 1.0000000000000002 -0.9999999999999997Z" /></g></g><g transform="matrix(43.99410216645908,0.0,0.0,43.99410216645908,250.0,241.9675619155249)"><g stroke="rgb(0,0,0)" stroke-opacity="1.0" fill="rgb(255,0,0)" fill-opacity="1.0" stroke-width="0.0" stroke-linecap="butt" stroke-linejoin="miter" font-size="1.0em" stroke-miterlimit="10.0"><path d="M 3.8740182869784974,-3.999999999999999 c 0.0,-2.2091389993231736e-2 -1.7908610006768255e-2,-3.9999999999999994e-2 -3.999999999999999e-2 -3.9999999999999994e-2c -2.2091389993231736e-2,-1.3527075021963557e-18 -3.9999999999999994e-2,1.790861000676825e-2 -3.9999999999999994e-2 3.999999999999998e-2c -2.7054150043927113e-18,2.2091389993231736e-2 1.790861000676825e-2,3.9999999999999994e-2 3.999999999999997e-2 3.9999999999999994e-2c 2.2091389993231736e-2,4.058122506589067e-18 3.9999999999999994e-2,-1.7908610006768248e-2 4.0000000000000015e-2 -3.999999999999998e-2Z" /></g></g><g transform="matrix(43.99410216645908,0.0,0.0,43.99410216645908,250.0,241.9675619155249)"><g stroke="rgb(0,0,0)" stroke-opacity="1.0" fill="rgb(0,0,0)" fill-opacity="0.0" stroke-width="1.0e-2" stroke-linecap="butt" stroke-linejoin="miter" font-size="1.0em" stroke-miterlimit="10.0"></g></g><g transform="matrix(43.99410216645908,0.0,0.0,43.99410216645908,250.0,241.9675619155249)"><g stroke="rgb(0,0,0)" stroke-opacity="1.0" fill="rgb(0,0,0)" fill-opacity="0.0" stroke-width="2.0e-2" stroke-linecap="butt" stroke-linejoin="miter" font-size="1.0em" stroke-miterlimit="10.0"><path d="M 0.8340182869784973,-3.999999999999999 c 0.0,-0.5522847498307935 -0.44771525016920644,-1.0 -0.9999999999999998 -1.0c -0.5522847498307935,-3.3817687554908895e-17 -1.0,0.4477152501692064 -1.0 0.9999999999999997c -6.763537510981779e-17,0.5522847498307935 0.4477152501692063,1.0 0.9999999999999996 1.0c 0.5522847498307935,1.0145306266472669e-16 1.0,-0.44771525016920627 1.0000000000000002 -0.9999999999999997Z" /></g></g><g transform="matrix(43.99410216645908,0.0,0.0,43.99410216645908,250.0,241.9675619155249)"><g stroke="rgb(0,0,0)" stroke-opacity="1.0" fill="rgb(255,0,0)" fill-opacity="1.0" stroke-width="0.0" stroke-linecap="butt" stroke-linejoin="miter" font-size="1.0em" stroke-miterlimit="10.0"><path d="M -0.12598171302150268,-3.999999999999999 c 0.0,-2.2091389993231736e-2 -1.7908610006768255e-2,-3.9999999999999994e-2 -3.999999999999999e-2 -3.9999999999999994e-2c -2.2091389993231736e-2,-1.3527075021963557e-18 -3.9999999999999994e-2,1.790861000676825e-2 -3.9999999999999994e-2 3.999999999999998e-2c -2.7054150043927113e-18,2.2091389993231736e-2 1.790861000676825e-2,3.9999999999999994e-2 3.999999999999997e-2 3.9999999999999994e-2c 2.2091389993231736e-2,4.058122506589067e-18 3.9999999999999994e-2,-1.7908610006768248e-2 4.0000000000000015e-2 -3.999999999999998e-2Z" /></g></g><g transform="matrix(43.99410216645908,0.0,0.0,43.99410216645908,250.0,241.9675619155249)"><g stroke="rgb(0,0,0)" stroke-opacity="1.0" fill="rgb(0,0,0)" fill-opacity="0.0" stroke-width="1.0e-2" stroke-linecap="butt" stroke-linejoin="miter" font-size="1.0em" stroke-miterlimit="10.0"></g></g><g transform="matrix(43.99410216645908,0.0,0.0,43.99410216645908,250.0,241.9675619155249)"><g stroke="rgb(0,0,0)" stroke-opacity="1.0" fill="rgb(0,0,0)" fill-opacity="0.0" stroke-width="2.0e-2" stroke-linecap="butt" stroke-linejoin="miter" font-size="1.0em" stroke-miterlimit="10.0"><path d="M -3.1659817130215027,-3.999999999999999 c 0.0,-0.5522847498307935 -0.44771525016920644,-1.0 -0.9999999999999998 -1.0c -0.5522847498307935,-3.3817687554908895e-17 -1.0,0.4477152501692064 -1.0 0.9999999999999997c -6.763537510981779e-17,0.5522847498307935 0.4477152501692063,1.0 0.9999999999999996 1.0c 0.5522847498307935,1.0145306266472669e-16 1.0,-0.44771525016920627 1.0000000000000002 -0.9999999999999997Z" /></g></g><g transform="matrix(43.99410216645908,0.0,0.0,43.99410216645908,250.0,241.9675619155249)"><g stroke="rgb(0,0,0)" stroke-opacity="1.0" fill="rgb(255,0,0)" fill-opacity="1.0" stroke-width="0.0" stroke-linecap="butt" stroke-linejoin="miter" font-size="1.0em" stroke-miterlimit="10.0"><path d="M -4.125981713021503,-3.999999999999999 c 0.0,-2.2091389993231736e-2 -1.7908610006768255e-2,-3.9999999999999994e-2 -3.999999999999999e-2 -3.9999999999999994e-2c -2.2091389993231736e-2,-1.3527075021963557e-18 -3.9999999999999994e-2,1.790861000676825e-2 -3.9999999999999994e-2 3.999999999999998e-2c -2.7054150043927113e-18,2.2091389993231736e-2 1.790861000676825e-2,3.9999999999999994e-2 3.999999999999997e-2 3.9999999999999994e-2c 2.2091389993231736e-2,4.058122506589067e-18 3.9999999999999994e-2,-1.7908610006768248e-2 4.0000000000000015e-2 -3.999999999999998e-2Z" /></g></g><g transform="matrix(43.99410216645908,0.0,0.0,43.99410216645908,250.0,241.9675619155249)"><g stroke="rgb(0,0,0)" stroke-opacity="1.0" fill-opacity="0.0" stroke-width="0.1" stroke-linecap="butt" stroke-linejoin="miter" font-size="1.0em" stroke-miterlimit="10.0"><path d="M -4.165981713021503,-3.999999999999999 c 0.724962663092045,0.4499542960657309 0.724962663092045,0.4499542960657309 1.174916959157776 -0.2750083670263141l 0.13750418351315705,0.587458479578888 c 0.4499542960657309,-0.724962663092045 0.4499542960657309,-0.724962663092045 1.174916959157776 -0.2750083670263141l 0.13750418351315705,0.587458479578888 c 0.724962663092045,0.4499542960657309 0.724962663092045,0.4499542960657309 1.174916959157776 -0.2750083670263141" /></g></g><g transform="matrix(43.99410216645908,0.0,0.0,43.99410216645908,250.0,241.9675619155249)"><g stroke="rgb(0,0,0)" stroke-opacity="1.0" fill="rgb(0,0,0)" fill-opacity="1.0" stroke-width="0.0" stroke-linecap="butt" stroke-linejoin="miter" font-size="1.0em" stroke-miterlimit="10.0"><path d="" /></g></g><g transform="matrix(43.99410216645908,0.0,0.0,43.99410216645908,250.0,241.9675619155249)"><g stroke="rgb(0,0,0)" stroke-opacity="1.0" fill="rgb(255,255,0)" fill-opacity="1.0" stroke-width="0.0" stroke-linecap="butt" stroke-linejoin="miter" font-size="1.0em" stroke-miterlimit="10.0"><path d="" /></g></g><g transform="matrix(43.99410216645908,0.0,0.0,43.99410216645908,250.0,241.9675619155249)"><g stroke="rgb(0,0,0)" stroke-opacity="1.0" fill="rgb(255,165,0)" fill-opacity="1.0" stroke-width="0.0" stroke-linecap="butt" stroke-linejoin="miter" font-size="1.0em" stroke-miterlimit="10.0"><path d="M -0.1490590851973833,-3.999999999999999 l -0.13636829522712277,0.5540999431910626 l -5.347547304373734e-2,-0.24822522431302263 l -0.246172274965626,6.224627893095379e-2 l 0.43601604323648613,-0.36812099780899377 Z" /></g></g><g transform="matrix(43.99410216645908,0.0,0.0,43.99410216645908,250.0,241.9675619155249)"><g stroke="rgb(0,0,0)" stroke-opacity="1.0" fill="rgb(0,0,0)" fill-opacity="1.0" stroke-width="0.0" stroke-linecap="butt" stroke-linejoin="miter" font-size="1.0em" stroke-miterlimit="10.0"><path d="M -0.33890285346824345,-3.694125281121959 l 1.5162984790554303e-2,7.038432923841305e-2 l -8.496519968834443e-2,-5.273438007523893e-2 l 6.980221489779014e-2,-1.764994916317412e-2 l -1.3877787807814457e-17,3.469446951953614e-18 Z" /></g></g><g transform="matrix(43.99410216645908,0.0,0.0,43.99410216645908,250.0,241.9675619155249)"><g stroke="rgb(0,0,0)" stroke-opacity="1.0" fill-opacity="0.0" stroke-width="5.0e-2" stroke-linecap="butt" stroke-linejoin="miter" font-size="1.0em" stroke-miterlimit="10.0"><path d="M -3.7554704061819963,-0.4778916895667056 c 0.7466580485000027,-0.8692127850835285 1.4933160970000054,-1.738425570167057 1.864470645515346 -1.6636720411150498c 0.37115454851534035,7.475352905200727e-2 0.3668055970460189,1.0934733722395498 0.8318360205575248 0.9322353227576728c 0.46503042351150625,-0.1612380494818768 1.3994402220038404,-1.5024339916331733 1.864470645515346 -1.6636720411150498c 0.4650304235115058,-0.16123804948187642 0.46068147204218457,0.8574817937056657 0.8318360205575249 0.932235322757673c 0.3711545485153406,7.475352905200747e-2 1.1178125970153434,-0.7944592560315211 1.864470645515347 -1.66367204111505" /></g></g><g transform="matrix(43.99410216645908,0.0,0.0,43.99410216645908,250.0,241.9675619155249)"><g stroke="rgb(0,0,0)" stroke-opacity="1.0" fill="rgb(0,0,0)" fill-opacity="1.0" stroke-width="0.0" stroke-linecap="butt" stroke-linejoin="miter" font-size="1.0em" stroke-miterlimit="10.0"><path d="M -3.807014624564763,-0.456253908920122 l 3.79279118703735e-2,3.258026244757985e-2 l 3.2580262447579854e-2,-3.792791187037349e-2 l -3.792791187037348e-2,-3.258026244757986e-2 l -3.258026244757987e-2,3.7927911870373504e-2 Z" /></g></g><g transform="matrix(43.99410216645908,0.0,0.0,43.99410216645908,250.0,241.9675619155249)"><g stroke="rgb(0,0,0)" stroke-opacity="1.0" fill="rgb(0,0,0)" fill-opacity="1.0" stroke-width="0.0" stroke-linecap="butt" stroke-linejoin="miter" font-size="1.0em" stroke-miterlimit="10.0"><path d="M -4.100821188126343,-7.585582374074662e-2 c 8.917386899061666e-2,7.660079113002286e-2 0.5716610956979847,-0.3046693263283453 0.6498537255721764 -0.39569631481724155c 7.819262987419172e-2,-9.10269884888964e-2 -0.24790933708479312,0.1081891519916791 -0.33708320607540976 3.158836086165612e-2c -8.917386899061665e-2,-7.660079113002286e-2 5.858035998713479e-2,-0.42901851387064416 -1.9612269887056888e-2 -0.3379915253817477c -7.819262987419165e-2,9.102698848889637e-2 -0.3823321186003263,0.6254986882073102 -0.2931582496097097 0.7020994793373332Z" /></g></g><g transform="matrix(43.99410216645908,0.0,0.0,43.99410216645908,250.0,241.9675619155249)"><g stroke="rgb(0,0,0)" stroke-opacity="1.0" fill="rgb(0,0,0)" fill-opacity="1.0" stroke-width="0.0" stroke-linecap="butt" stroke-linejoin="miter" font-size="1.0em" stroke-miterlimit="10.0"><path d="M 3.846964353423439,-4.006473033222469 c 8.917386899061666e-2,7.660079113002286e-2 -0.21496561973551795,0.6110724908484368 -0.29315824960970943 0.7020994793373331c -7.819262987419166e-2,9.102698848889643e-2 6.956159910355969e-2,-0.2613907342517249 -1.961226988705711e-2 -0.3379915253817477c -8.917386899061668e-2,-7.660079113002283e-2 -0.41527583594960144,0.12261534935055277 -0.3370832060754097 3.158836086165631e-2c 7.819262987419165e-2,-9.102698848889637e-2 0.5606798565815596,-0.4722971059472646 0.6498537255721762 -0.39569631481724166Z" /></g></g><g transform="matrix(43.99410216645908,0.0,0.0,43.99410216645908,250.0,241.9675619155249)"><g stroke="rgb(0,0,0)" stroke-opacity="1.0" fill="rgb(0,0,0)" fill-opacity="1.0" stroke-width="0.0" stroke-linecap="butt" stroke-linejoin="miter" font-size="1.0em" stroke-miterlimit="10.0"><path d="M 3.5152298779914855,-3.658655210490673 l 3.792791187037348e-2,3.258026244757986e-2 l -3.2580262447579854e-2,3.792791187037349e-2 l -3.79279118703735e-2,-3.258026244757985e-2 l 3.258026244757987e-2,-3.7927911870373504e-2 Z" /></g></g><g transform="matrix(43.99410216645908,0.0,0.0,43.99410216645908,250.0,241.9675619155249)"><g stroke="rgb(0,0,0)" stroke-opacity="1.0" fill-opacity="0.0" stroke-width="3.0e-2" stroke-linecap="butt" stroke-linejoin="miter" font-size="1.0em" stroke-miterlimit="10.0"><path d="M -4.165981713021503,-3.999999999999999 c 0.9106513670136082,3.208292261969882 4.249714916836764,5.070898224563477 7.458007178806645 4.16024685754987" /></g></g><g transform="matrix(43.99410216645908,0.0,0.0,43.99410216645908,250.0,241.9675619155249)"><g stroke="rgb(0,0,0)" stroke-opacity="1.0" fill="rgb(0,0,0)" fill-opacity="1.0" stroke-width="0.0" stroke-linecap="butt" stroke-linejoin="miter" font-size="1.0em" stroke-miterlimit="10.0"><path d="" /></g></g><g transform="matrix(43.99410216645908,0.0,0.0,43.99410216645908,250.0,241.9675619155249)"><g stroke="rgb(0,0,0)" stroke-opacity="1.0" fill="rgb(0,0,0)" fill-opacity="1.0" stroke-width="0.0" stroke-linecap="butt" stroke-linejoin="miter" font-size="1.0em" stroke-miterlimit="10.0"><path d="" /></g></g><g transform="matrix(43.99410216645908,0.0,0.0,43.99410216645908,250.0,241.9675619155249)"><g stroke="rgb(0,0,0)" stroke-opacity="1.0" fill="rgb(0,0,0)" fill-opacity="1.0" stroke-width="0.0" stroke-linecap="butt" stroke-linejoin="miter" font-size="1.0em" stroke-miterlimit="10.0"><path d="M 3.8421908136202263,4.0862633208658405e-3 c -0.19239960389094482,5.4611284755144984e-2 -0.48223026261110974,0.2838856438988553 -0.57966131744033 0.4585487182874206l 3.54730590047591e-2,-0.30408467916873044 l -0.18993709812344928,-0.24010357926684064 c 0.1746630743885653,9.743105482922022e-2 0.5417257526680753,0.14025082490329546 0.7341253565590202 8.563954014815042e-2v 5.551115123125783e-17 Z" /></g></g><g transform="matrix(43.99410216645908,0.0,0.0,43.99410216645908,250.0,241.9675619155249)"><g stroke="rgb(0,0,0)" stroke-opacity="1.0" fill="rgb(0,0,0)" fill-opacity="1.0" stroke-width="0.0" stroke-linecap="butt" stroke-linejoin="miter" font-size="1.0em" stroke-miterlimit="10.0"><path d="M 3.2980025551846555,0.158550302439556 l -1.8812430428771397e-3,1.6126525402135872e-2 l -8.191692713271755e-3,-2.8859940583641747e-2 l 1.0072935756148895e-2,1.2733415181505874e-2 h -0.0 Z" /></g></g><g transform="matrix(43.99410216645908,0.0,0.0,43.99410216645908,250.0,241.9675619155249)"><g stroke="rgb(0,0,0)" stroke-opacity="1.0" fill-opacity="0.0" stroke-width="0.1" stroke-linecap="butt" stroke-linejoin="miter" font-size="1.0em" stroke-miterlimit="10.0"><path d="M -4.225230673504049,0.5988823911537288 c -6.1454818086912055e-2,0.6211789726614556 -0.12290963617382411,1.2423579453229112 -6.809973067478153e-2 1.3217525236056737c 5.4809905499042584e-2,7.939457828276245e-2 0.2258845345840398,-0.38299523781316797 0.2779704508560911 -0.25073055858617865c 5.2085916272051315e-2,0.1322646792269896 -1.4816880268843261e-2,0.8591838537768989 -8.171967680973782e-2 1.586103028326808" /></g></g><g transform="matrix(43.99410216645908,0.0,0.0,43.99410216645908,250.0,241.9675619155249)"><g stroke="rgb(0,0,0)" stroke-opacity="1.0" fill="rgb(0,0,0)" fill-opacity="1.0" stroke-width="0.0" stroke-linecap="butt" stroke-linejoin="miter" font-size="1.0em" stroke-miterlimit="10.0"><path d="M -4.220130265779843,0.5473279951127822 l -5.4857498189004594e-2,4.663180033564289e-2 l 9.951418092959669e-2,9.845191410607294e-3 l -4.465668274059209e-2,-5.6476991746250184e-2 h -0.0 Z" /></g></g><g transform="matrix(43.99410216645908,0.0,0.0,43.99410216645908,250.0,241.9675619155249)"><g stroke="rgb(0,0,0)" stroke-opacity="1.0" fill="rgb(0,0,0)" fill-opacity="1.0" stroke-width="0.0" stroke-linecap="butt" stroke-linejoin="miter" font-size="1.0em" stroke-miterlimit="10.0"><path d="M -4.17582690443211,9.951418092959713e-2 l -0.2861365744464173,0.6533849481217207 l 0.2418332130986846,-0.2055711339385357 l 0.19686404648417893,0.24897257131717188 l -0.15256068513644622,-0.6967863855003569 Z" /></g></g><g transform="matrix(43.99410216645908,0.0,0.0,43.99410216645908,250.0,241.9675619155249)"><g stroke="rgb(0,0,0)" stroke-opacity="1.0" fill="rgb(0,0,0)" fill-opacity="1.0" stroke-width="0.0" stroke-linecap="butt" stroke-linejoin="miter" font-size="1.0em" stroke-miterlimit="10.0"><path d="M -4.156816838629667,3.9050702717913053 l -0.20975868133390105,-0.9276366706812191 l 0.26474792768490824,0.3301618320597519 l 0.320563570244298,-0.2762920519934192 l -0.37555281659530515,0.8737668906148864 Z" /></g></g><g transform="matrix(43.99410216645908,0.0,0.0,43.99410216645908,250.0,241.9675619155249)"><g stroke="rgb(0,0,0)" stroke-opacity="1.0" fill="rgb(0,0,0)" fill-opacity="1.0" stroke-width="0.0" stroke-linecap="butt" stroke-linejoin="miter" font-size="1.0em" stroke-miterlimit="10.0"><path d="M -4.10182759227866,3.3075954331698383 l -4.50416077389389e-2,-5.617048586572368e-2 l 9.95791397702445e-2,9.164874391834527e-3 l -5.4537532031305604e-2,4.700561147388915e-2 h -0.0 Z" /></g></g><g transform="matrix(43.99410216645908,0.0,0.0,43.99410216645908,250.0,241.9675619155249)"><g stroke="rgb(0,0,0)" stroke-opacity="1.0" fill-opacity="0.0" stroke-width="0.2" stroke-linecap="butt" stroke-linejoin="miter" font-size="1.0em" stroke-miterlimit="10.0"><path d="M 4.332741623883142,3.5036683522857537 c 1.1072212168928384,-1.10191140116964 1.111525673019126,-2.8927672288125743 9.6142718494866e-3 -3.9999884457054127c -1.1019114011696391,-1.107221216892838 -2.892767228812573,-1.1115256730191259 -3.9999884457054122 -9.614271849487044e-3" /></g></g><g transform="matrix(43.99410216645908,0.0,0.0,43.99410216645908,250.0,241.9675619155249)"><g stroke="rgb(0,0,0)" stroke-opacity="1.0" fill="rgb(0,0,0)" fill-opacity="1.0" stroke-width="0.0" stroke-linecap="butt" stroke-linejoin="miter" font-size="1.0em" stroke-miterlimit="10.0"><path d="M 4.2593008776955585,3.576756904329221 l 0.14398126213271284,-2.208120257290433e-3 l -0.14108103189025964,-0.14176086357235387 l -2.9002302424532e-3,0.1439689838296443 h -0.0 Z" /></g></g><g transform="matrix(43.99410216645908,0.0,0.0,43.99410216645908,250.0,241.9675619155249)"><g stroke="rgb(0,0,0)" stroke-opacity="1.0" fill="rgb(0,0,0)" fill-opacity="1.0" stroke-width="0.0" stroke-linecap="butt" stroke-linejoin="miter" font-size="1.0em" stroke-miterlimit="10.0"><path d="M 3.834018286978497,4.0 l 0.8484329031573883,-0.42973259828339694 l -0.42315031244032664,6.4895026126178534e-3 l 8.523562823833042e-3,-0.4231142274129923 l -0.4338061535408947,0.8463573230837714 Z" /></g></g><g transform="matrix(43.99410216645908,0.0,0.0,43.99410216645908,250.0,241.9675619155249)"><g stroke="rgb(0,0,0)" stroke-opacity="1.0" fill="rgb(0,0,0)" fill-opacity="1.0" stroke-width="0.0" stroke-linecap="butt" stroke-linejoin="miter" font-size="1.0em" stroke-miterlimit="10.0"><path d="M -0.16599326734946396,-1.1554327963070321e-5 l 0.35560394291207054,-0.8527011354388256 c -6.637269653998745e-4,0.27614157725780974 0.22265519447418095,0.5005366127289625 0.4987967717319907 0.5012003396943624l -0.8544007146440613,0.3515007957444633 v -5.551115123125783e-17 Z" /></g></g><g transform="matrix(43.99410216645908,0.0,0.0,43.99410216645908,250.0,241.9675619155249)"><g stroke="rgb(0,0,0)" stroke-opacity="1.0" fill="rgb(0,0,0)" fill-opacity="1.0" stroke-width="0.0" stroke-linecap="butt" stroke-linejoin="miter" font-size="1.0em" stroke-miterlimit="10.0"><path d="M 0.4129079659723465,-0.4350539334829685 c -5.609426344198645e-2,-3.727000555385772e-2 -0.10408110893445556,-8.548808679398516e-2 -0.14108103189025967 -0.14176086357235393l 0.14108103189025967,0.14176086357235393 Z" /></g></g><g transform="matrix(43.99410216645908,0.0,0.0,43.99410216645908,250.0,241.9675619155249)"><g stroke="rgb(0,0,0)" stroke-opacity="1.0" fill-opacity="0.0" stroke-width="3.0e-2" stroke-linecap="butt" stroke-linejoin="miter" stroke-dasharray="0.1,0.2,0.3,0.1" stroke-dashoffset="0.0" font-size="1.0em" stroke-miterlimit="10.0"><path d="M 7.672338529098155e-2,4.0 h 3.5322949016875156 " /></g></g><g transform="matrix(43.99410216645908,0.0,0.0,43.99410216645908,250.0,241.9675619155249)"><g stroke="rgb(0,0,0)" stroke-opacity="1.0" fill="rgb(0,0,0)" fill-opacity="1.0" stroke-width="0.0" stroke-linecap="butt" stroke-linejoin="miter" font-size="1.0em" stroke-miterlimit="10.0"><path d="" /></g></g><g transform="matrix(43.99410216645908,0.0,0.0,43.99410216645908,250.0,241.9675619155249)"><g stroke="rgb(0,0,0)" stroke-opacity="1.0" fill="rgb(0,0,0)" fill-opacity="1.0" stroke-width="0.0" stroke-linecap="butt" stroke-linejoin="miter" font-size="1.0em" stroke-miterlimit="10.0"><path d="M 7.672338529098155e-2,3.911832212156129 l -2.6945678834043217e-17,0.17633557568774197 h -0.24270509831248419 l -2.6945678834043217e-17,-0.17633557568774197 h 0.24270509831248424 Z" /></g></g><g transform="matrix(43.99410216645908,0.0,0.0,43.99410216645908,250.0,241.9675619155249)"><g stroke="rgb(0,0,0)" stroke-opacity="1.0" fill="rgb(0,0,0)" fill-opacity="1.0" stroke-width="0.0" stroke-linecap="butt" stroke-linejoin="miter" font-size="1.0em" stroke-miterlimit="10.0"><path d="M 3.8340182869784973,4.0 l -0.22499999999999998,0.1299038105676658 v -0.2598076211353316 l 0.22499999999999998,0.1299038105676658 Z" /></g></g><g transform="matrix(43.99410216645908,0.0,0.0,43.99410216645908,250.0,241.9675619155249)"><g stroke="rgb(0,0,0)" stroke-opacity="1.0" fill="rgb(0,0,0)" fill-opacity="1.0" stroke-width="0.0" stroke-linecap="butt" stroke-linejoin="miter" font-size="1.0em" stroke-miterlimit="10.0"><path d="" /></g></g></g></svg>