<?xml version="1.0" encoding="UTF-8"?>
<!DOCTYPE svg PUBLIC "-//W3C//DTD SVG 1.1//EN"
    "http://www.w3.org/Graphics/SVG/1.1/DTD/svg11.dtd">
<svg xmlns="http://www.w3.org/2000/svg" xmlns:xlink="http://www.w3.org/1999/xlink" version="1.1" width="500.0" height="202.45187841735773" font-size="1" viewBox="0 0 500 202"><g><g transform="matrix(56.81818181818181,0.0,0.0,56.81818181818181,250.0,101.22593920867887)"><g stroke="rgb(0,0,0)" stroke-opacity="1.0" fill="rgb(0,0,0)" fill-opacity="0.0" stroke-width="2.0e-2" stroke-linecap="butt" stroke-linejoin="miter" font-size="1.0em" stroke-miterlimit="10.0"><path d="M 4.0,-0.11961502733886187 c 0.0,-0.8284271247461902 -0.6715728752538097,-1.5 -1.4999999999999996 -1.5c -0.8284271247461902,-5.072653133236334e-17 -1.5,0.6715728752538096 -1.5 1.4999999999999996c -1.0145306266472669e-16,0.8284271247461902 0.6715728752538095,1.5 1.4999999999999993 1.5c 0.8284271247461902,1.5217959399709003e-16 1.5,-0.6715728752538094 1.5000000000000002 -1.4999999999999996Z" /></g></g><g transform="matrix(56.81818181818181,0.0,0.0,56.81818181818181,250.0,101.22593920867887)"><g stroke="rgb(0,0,0)" stroke-opacity="1.0" fill="rgb(255,0,0)" fill-opacity="1.0" stroke-width="0.0" stroke-linecap="butt" stroke-linejoin="miter" font-size="1.0em" stroke-miterlimit="10.0"><path d="M 2.56,-0.11961502733886187 c 0.0,-3.3137084989847604e-2 -2.6862915010152384e-2,-6.0e-2 -5.9999999999999984e-2 -6.0e-2c -3.3137084989847604e-2,-2.0290612532945338e-18 -6.0e-2,2.6862915010152384e-2 -6.0e-2 5.999999999999998e-2c -4.0581225065890676e-18,3.3137084989847604e-2 2.686291501015238e-2,6.0e-2 5.999999999999997e-2 6.0e-2c 3.3137084989847604e-2,6.087183759883601e-18 6.0e-2,-2.6862915010152377e-2 6.000000000000001e-2 -5.999999999999998e-2Z" /></g></g><g transform="matrix(56.81818181818181,0.0,0.0,56.81818181818181,250.0,101.22593920867887)"><g stroke="rgb(0,0,0)" stroke-opacity="1.0" fill="rgb(0,0,0)" fill-opacity="0.0" stroke-width="1.0e-2" stroke-linecap="butt" stroke-linejoin="miter" font-size="1.0em" stroke-miterlimit="10.0"></g></g><g transform="matrix(56.81818181818181,0.0,0.0,56.81818181818181,250.0,101.22593920867887)"><g stroke="rgb(0,0,0)" stroke-opacity="1.0" fill="rgb(0,0,0)" fill-opacity="0.0" stroke-width="2.0e-2" stroke-linecap="butt" stroke-linejoin="miter" font-size="1.0em" stroke-miterlimit="10.0"><path d="M -1.0,-0.11961502733886187 c 0.0,-0.8284271247461902 -0.6715728752538097,-1.5 -1.4999999999999996 -1.5c -0.8284271247461902,-5.072653133236334e-17 -1.5,0.6715728752538096 -1.5 1.4999999999999996c -1.0145306266472669e-16,0.8284271247461902 0.6715728752538095,1.5 1.4999999999999993 1.5c 0.8284271247461902,1.5217959399709003e-16 1.5,-0.6715728752538094 1.5000000000000002 -1.4999999999999996Z" /></g></g><g transform="matrix(56.81818181818181,0.0,0.0,56.81818181818181,250.0,101.22593920867887)"><g stroke="rgb(0,0,0)" stroke-opacity="1.0" fill="rgb(255,0,0)" fill-opacity="1.0" stroke-width="0.0" stroke-linecap="butt" stroke-linejoin="miter" font-size="1.0em" stroke-miterlimit="10.0"><path d="M -2.44,-0.11961502733886187 c 0.0,-3.3137084989847604e-2 -2.6862915010152384e-2,-6.0e-2 -5.9999999999999984e-2 -6.0e-2c -3.3137084989847604e-2,-2.0290612532945338e-18 -6.0e-2,2.6862915010152384e-2 -6.0e-2 5.999999999999998e-2c -4.0581225065890676e-18,3.3137084989847604e-2 2.686291501015238e-2,6.0e-2 5.999999999999997e-2 6.0e-2c 3.3137084989847604e-2,6.087183759883601e-18 6.0e-2,-2.6862915010152377e-2 6.000000000000001e-2 -5.999999999999998e-2Z" /></g></g><g transform="matrix(56.81818181818181,0.0,0.0,56.81818181818181,250.0,101.22593920867887)"><g stroke="rgb(0,0,0)" stroke-opacity="1.0" fill-opacity="0.0" stroke-width="0.1" stroke-linecap="butt" stroke-linejoin="miter" font-size="1.0em" stroke-miterlimit="10.0"><path d="M -2.5,-0.11961502733886187 c 0.605803901696306,0.6247050901891186 0.605803901696306,0.6247050901891186 1.2305089918854246 1.890118849281251e-2l -9.450594246406254e-3,0.6152544959427123 c 0.6247050901891186,-0.605803901696306 0.6247050901891186,-0.605803901696306 1.2305089918854246 1.890118849281251e-2l -9.450594246406254e-3,0.6152544959427123 c 0.605803901696306,0.6247050901891186 0.605803901696306,0.6247050901891186 1.2305089918854246 1.890118849281251e-2" /></g></g><g transform="matrix(56.81818181818181,0.0,0.0,56.81818181818181,250.0,101.22593920867887)"><g stroke="rgb(0,0,0)" stroke-opacity="1.0" fill="rgb(0,0,0)" fill-opacity="1.0" stroke-width="0.0" stroke-linecap="butt" stroke-linejoin="miter" font-size="1.0em" stroke-miterlimit="10.0"><path d="" /></g></g><g transform="matrix(56.81818181818181,0.0,0.0,56.81818181818181,250.0,101.22593920867887)"><g stroke="rgb(0,0,0)" stroke-opacity="1.0" fill="rgb(0,0,0)" fill-opacity="1.0" stroke-width="0.0" stroke-linecap="butt" stroke-linejoin="miter" font-size="1.0em" stroke-miterlimit="10.0"><path d="" /></g></g><g transform="matrix(56.81818181818181,0.0,0.0,56.81818181818181,250.0,101.22593920867887)"><g stroke="rgb(0,0,0)" stroke-opacity="1.0" fill="rgb(0,0,0)" fill-opacity="1.0" stroke-width="0.0" stroke-linecap="butt" stroke-linejoin="miter" font-size="1.0em" stroke-miterlimit="10.0"><path d="M 2.4999996031605627,-0.11961502733886409 l -1.1147114224499632,1.6140562287857736 c -9.771868428203927e-2,-0.2465579956622702 -0.28937984807708095,-0.4441990215438686 -0.5328202230700927 -0.5494443079279662l 1.647531645520056,-1.0646119208578075 h -0.0 Z" /></g></g><g transform="matrix(56.81818181818181,0.0,0.0,56.81818181818181,250.0,101.22593920867887)"><g stroke="rgb(0,0,0)" stroke-opacity="1.0" fill="rgb(0,0,0)" fill-opacity="1.0" stroke-width="0.0" stroke-linecap="butt" stroke-linejoin="miter" font-size="1.0em" stroke-miterlimit="10.0"><path d="M 1.1378176286434336,1.1317033508249597 c 2.4388138827951298e-2,2.2753480139362067e-2 4.762262095532136e-2,4.6712882203683095e-2 6.961631704005534e-2 7.178835840008116e-2l -6.961631704005534e-2,-7.178835840008116e-2 Z" /></g></g></g></svg>