<?xml version="1.0" encoding="UTF-8"?>
<!DOCTYPE svg PUBLIC "-//W3C//DTD SVG 1.1//EN"
    "http://www.w3.org/Graphics/SVG/1.1/DTD/svg11.dtd">
<svg xmlns="http://www.w3.org/2000/svg" xmlns:xlink="http://www.w3.org/1999/xlink" version="1.1" width="500.0" height="206.67936143971298" font-size="1" viewBox="0 0 500 207"><g><g transform="matrix(56.81818181818181,0.0,0.0,56.81818181818181,250.0,103.33968071985649)"><g stroke="rgb(0,0,0)" stroke-opacity="1.0" fill="rgb(0,0,0)" fill-opacity="0.0" stroke-width="2.0e-2" stroke-linecap="butt" stroke-linejoin="miter" font-size="1.0em" stroke-miterlimit="10.0"><path d="M 4.0,-0.15343489151770395 c 0.0,-0.8284271247461902 -0.6715728752538097,-1.5 -1.4999999999999996 -1.5c -0.8284271247461902,-5.072653133236334e-17 -1.5,0.6715728752538096 -1.5 1.4999999999999996c -1.0145306266472669e-16,0.8284271247461902 0.6715728752538095,1.5 1.4999999999999993 1.5c 0.8284271247461902,1.5217959399709003e-16 1.5,-0.6715728752538094 1.5000000000000002 -1.4999999999999996Z" /></g></g><g transform="matrix(56.81818181818181,0.0,0.0,56.81818181818181,250.0,103.33968071985649)"><g stroke="rgb(0,0,0)" stroke-opacity="1.0" fill="rgb(255,0,0)" fill-opacity="1.0" stroke-width="0.0" stroke-linecap="butt" stroke-linejoin="miter" font-size="1.0em" stroke-miterlimit="10.0"><path d="M 2.56,-0.15343489151770395 c 0.0,-3.3137084989847604e-2 -2.6862915010152384e-2,-6.0e-2 -5.9999999999999984e-2 -6.0e-2c -3.3137084989847604e-2,-2.0290612532945338e-18 -6.0e-2,2.6862915010152384e-2 -6.0e-2 5.999999999999998e-2c -4.0581225065890676e-18,3.3137084989847604e-2 2.686291501015238e-2,6.0e-2 5.999999999999997e-2 6.0e-2c 3.3137084989847604e-2,6.087183759883601e-18 6.0e-2,-2.6862915010152377e-2 6.000000000000001e-2 -5.999999999999998e-2Z" /></g></g><g transform="matrix(56.81818181818181,0.0,0.0,56.81818181818181,250.0,103.33968071985649)"><g stroke="rgb(0,0,0)" stroke-opacity="1.0" fill="rgb(0,0,0)" fill-opacity="0.0" stroke-width="1.0e-2" stroke-linecap="butt" stroke-linejoin="miter" font-size="1.0em" stroke-miterlimit="10.0"></g></g><g transform="matrix(56.81818181818181,0.0,0.0,56.81818181818181,250.0,103.33968071985649)"><g stroke="rgb(0,0,0)" stroke-opacity="1.0" fill="rgb(0,0,0)" fill-opacity="0.0" stroke-width="2.0e-2" stroke-linecap="butt" stroke-linejoin="miter" font-size="1.0em" stroke-miterlimit="10.0"><path d="M -1.0,-0.15343489151770395 c 0.0,-0.8284271247461902 -0.6715728752538097,-1.5 -1.4999999999999996 -1.5c -0.8284271247461902,-5.072653133236334e-17 -1.5,0.6715728752538096 -1.5 1.4999999999999996c -1.0145306266472669e-16,0.8284271247461902 0.6715728752538095,1.5 1.4999999999999993 1.5c 0.8284271247461902,1.5217959399709003e-16 1.5,-0.6715728752538094 1.5000000000000002 -1.4999999999999996Z" /></g></g><g transform="matrix(56.81818181818181,0.0,0.0,56.81818181818181,250.0,103.33968071985649)"><g stroke="rgb(0,0,0)" stroke-opacity="1.0" fill="rgb(255,0,0)" fill-opacity="1.0" stroke-width="0.0" stroke-linecap="butt" stroke-linejoin="miter" font-size="1.0em" stroke-miterlimit="10.0"><path d="M -2.44,-0.15343489151770395 c 0.0,-3.3137084989847604e-2 -2.6862915010152384e-2,-6.0e-2 -5.9999999999999984e-2 -6.0e-2c -3.3137084989847604e-2,-2.0290612532945338e-18 -6.0e-2,2.6862915010152384e-2 -6.0e-2 5.999999999999998e-2c -4.0581225065890676e-18,3.3137084989847604e-2 2.686291501015238e-2,6.0e-2 5.999999999999997e-2 6.0e-2c 3.3137084989847604e-2,6.087183759883601e-18 6.0e-2,-2.6862915010152377e-2 6.000000000000001e-2 -5.999999999999998e-2Z" /></g></g><g transform="matrix(56.81818181818181,0.0,0.0,56.81818181818181,250.0,103.33968071985649)"><g stroke="rgb(0,0,0)" stroke-opacity="1.0" fill-opacity="0.0" stroke-width="0.1" stroke-linecap="butt" stroke-linejoin="miter" font-size="1.0em" stroke-miterlimit="10.0"><path d="M -2.5,-0.15343489151770395 c 0.661351677197159,0.6582941305137888 0.661351677197159,0.6582941305137888 1.3196458077109479 -3.057546683370319e-3l 1.5287733416851595e-3,0.6598229038554739 c 0.6582941305137888,-0.661351677197159 0.6582941305137888,-0.661351677197159 1.3196458077109479 -3.057546683370319e-3l 1.5287733416851595e-3,0.6598229038554739 c 0.661351677197159,0.6582941305137888 0.661351677197159,0.6582941305137888 1.3196458077109479 -3.057546683370319e-3" /></g></g><g transform="matrix(56.81818181818181,0.0,0.0,56.81818181818181,250.0,103.33968071985649)"><g stroke="rgb(0,0,0)" stroke-opacity="1.0" fill="rgb(0,0,0)" fill-opacity="1.0" stroke-width="0.0" stroke-linecap="butt" stroke-linejoin="miter" font-size="1.0em" stroke-miterlimit="10.0"><path d="" /></g></g><g transform="matrix(56.81818181818181,0.0,0.0,56.81818181818181,250.0,103.33968071985649)"><g stroke="rgb(0,0,0)" stroke-opacity="1.0" fill="rgb(0,0,0)" fill-opacity="1.0" stroke-width="0.0" stroke-linecap="butt" stroke-linejoin="miter" font-size="1.0em" stroke-miterlimit="10.0"><path d="" /></g></g><g transform="matrix(56.81818181818181,0.0,0.0,56.81818181818181,250.0,103.33968071985649)"><g stroke="rgb(0,0,0)" stroke-opacity="1.0" fill="rgb(0,0,0)" fill-opacity="1.0" stroke-width="0.0" stroke-linecap="butt" stroke-linejoin="miter" font-size="1.0em" stroke-miterlimit="10.0"><path d="M 2.766409586443495,-0.1534348915177044 l -1.086008393087134,1.6335069131065452 c -0.10206139929399577,-0.24479227368722337 -0.2971859814767751,-0.4390147601474585 -0.5424485657212562 -0.5399407293155952l 1.6284569588083904,-1.0935661837909496 v -4.440892098500626e-16 Z" /></g></g><g transform="matrix(56.81818181818181,0.0,0.0,56.81818181818181,250.0,103.33968071985649)"><g stroke="rgb(0,0,0)" stroke-opacity="1.0" fill="rgb(0,0,0)" fill-opacity="1.0" stroke-width="0.0" stroke-linecap="butt" stroke-linejoin="miter" font-size="1.0em" stroke-miterlimit="10.0"><path d="M 1.4265578095001286,1.121764948135528 c 2.4786502956115716e-2,2.2318858509122647e-2 4.8440844438589925e-2,4.5863841754760555e-2 7.087432063217032e-2 7.054665601520965e-2l -7.087432063217032e-2,-7.054665601520965e-2 Z" /></g></g></g></svg>