<?xml version="1.0" encoding="UTF-8"?>
<!DOCTYPE svg PUBLIC "-//W3C//DTD SVG 1.1//EN"
    "http://www.w3.org/Graphics/SVG/1.1/DTD/svg11.dtd">
<svg xmlns="http://www.w3.org/2000/svg" xmlns:xlink="http://www.w3.org/1999/xlink" version="1.1" width="500.00000000000006" height="483.93523785521785" font-size="1" viewBox="0 0 500 484"><g><g transform="matrix(43.99411253229254,0.0,0.0,43.99411253229254,250.00000000000003,241.96761892760892)"><g stroke="rgb(0,0,0)" stroke-opacity="1.0" fill="rgb(0,0,0)" fill-opacity="0.0" stroke-width="2.0e-2" stroke-linecap="butt" stroke-linejoin="miter" font-size="1.0em" stroke-miterlimit="10.0"><path d="M 4.834019504180141,4.0 c 0.0,-0.5522847498307935 -0.44771525016920644,-1.0 -0.9999999999999998 -1.0c -0.5522847498307935,-3.3817687554908895e-17 -1.0,0.4477152501692064 -1.0 0.9999999999999997c -6.763537510981779e-17,0.5522847498307935 0.4477152501692063,1.0 0.9999999999999996 1.0c 0.5522847498307935,1.0145306266472669e-16 1.0,-0.44771525016920627 1.0000000000000002 -0.9999999999999997Z" /></g></g><g transform="matrix(43.99411253229254,0.0,0.0,43.99411253229254,250.00000000000003,241.96761892760892)"><g stroke="rgb(0,0,0)" stroke-opacity="1.0" fill="rgb(255,0,0)" fill-opacity="1.0" stroke-width="0.0" stroke-linecap="butt" stroke-linejoin="miter" font-size="1.0em" stroke-miterlimit="10.0"><path d="M 3.874019504180141,4.0 c 0.0,-2.2091389993231736e-2 -1.7908610006768255e-2,-3.9999999999999994e-2 -3.999999999999999e-2 -3.9999999999999994e-2c -2.2091389993231736e-2,-1.3527075021963557e-18 -3.9999999999999994e-2,1.790861000676825e-2 -3.9999999999999994e-2 3.999999999999998e-2c -2.7054150043927113e-18,2.2091389993231736e-2 1.790861000676825e-2,3.9999999999999994e-2 3.999999999999997e-2 3.9999999999999994e-2c 2.2091389993231736e-2,4.058122506589067e-18 3.9999999999999994e-2,-1.7908610006768248e-2 4.0000000000000015e-2 -3.999999999999998e-2Z" /></g></g><g transform="matrix(43.99411253229254,0.0,0.0,43.99411253229254,250.00000000000003,241.96761892760892)"><g stroke="rgb(0,0,0)" stroke-opacity="1.0" fill="rgb(0,0,0)" fill-opacity="0.0" stroke-width="1.0e-2" stroke-linecap="butt" stroke-linejoin="miter" font-size="1.0em" stroke-miterlimit="10.0"></g></g><g transform="matrix(43.99411253229254,0.0,0.0,43.99411253229254,250.00000000000003,241.96761892760892)"><g stroke="rgb(0,0,0)" stroke-opacity="1.0" fill="rgb(0,0,0)" fill-opacity="0.0" stroke-width="2.0e-2" stroke-linecap="butt" stroke-linejoin="miter" font-size="1.0em" stroke-miterlimit="10.0"><path d="M 0.8340195041801408,4.0 c 0.0,-0.5522847498307935 -0.44771525016920644,-1.0 -0.9999999999999998 -1.0c -0.5522847498307935,-3.3817687554908895e-17 -1.0,0.4477152501692064 -1.0 0.9999999999999997c -6.763537510981779e-17,0.5522847498307935 0.4477152501692063,1.0 0.9999999999999996 1.0c 0.5522847498307935,1.0145306266472669e-16 1.0,-0.44771525016920627 1.0000000000000002 -0.9999999999999997Z" /></g></g><g transform="matrix(43.99411253229254,0.0,0.0,43.99411253229254,250.00000000000003,241.96761892760892)"><g stroke="rgb(0,0,0)" stroke-opacity="1.0" fill="rgb(255,0,0)" fill-opacity="1.0" stroke-width="0.0" stroke-linecap="butt" stroke-linejoin="miter" font-size="1.0em" stroke-miterlimit="10.0"><path d="M -0.1259804958198592,4.0 c 0.0,-2.2091389993231736e-2 -1.7908610006768255e-2,-3.9999999999999994e-2 -3.999999999999999e-2 -3.9999999999999994e-2c -2.2091389993231736e-2,-1.3527075021963557e-18 -3.9999999999999994e-2,1.790861000676825e-2 -3.9999999999999994e-2 3.999999999999998e-2c -2.7054150043927113e-18,2.2091389993231736e-2 1.790861000676825e-2,3.9999999999999994e-2 3.999999999999997e-2 3.9999999999999994e-2c 2.2091389993231736e-2,4.058122506589067e-18 3.9999999999999994e-2,-1.7908610006768248e-2 4.0000000000000015e-2 -3.999999999999998e-2Z" /></g></g><g transform="matrix(43.99411253229254,0.0,0.0,43.99411253229254,250.00000000000003,241.96761892760892)"><g stroke="rgb(0,0,0)" stroke-opacity="1.0" fill="rgb(0,0,0)" fill-opacity="0.0" stroke-width="1.0e-2" stroke-linecap="butt" stroke-linejoin="miter" font-size="1.0em" stroke-miterlimit="10.0"></g></g><g transform="matrix(43.99411253229254,0.0,0.0,43.99411253229254,250.00000000000003,241.96761892760892)"><g stroke="rgb(0,0,0)" stroke-opacity="1.0" fill="rgb(0,0,0)" fill-opacity="0.0" stroke-width="2.0e-2" stroke-linecap="butt" stroke-linejoin="miter" font-size="1.0em" stroke-miterlimit="10.0"><path d="M -3.165980495819859,4.0 c 0.0,-0.5522847498307935 -0.44771525016920644,-1.0 -0.9999999999999998 -1.0c -0.5522847498307935,-3.3817687554908895e-17 -1.0,0.4477152501692064 -1.0 0.9999999999999997c -6.763537510981779e-17,0.5522847498307935 0.4477152501692063,1.0 0.9999999999999996 1.0c 0.5522847498307935,1.0145306266472669e-16 1.0,-0.44771525016920627 1.0000000000000002 -0.9999999999999997Z" /></g></g><g transform="matrix(43.99411253229254,0.0,0.0,43.99411253229254,250.00000000000003,241.96761892760892)"><g stroke="rgb(0,0,0)" stroke-opacity="1.0" fill="rgb(255,0,0)" fill-opacity="1.0" stroke-width="0.0" stroke-linecap="butt" stroke-linejoin="miter" font-size="1.0em" stroke-miterlimit="10.0"><path d="M -4.125980495819859,4.0 c 0.0,-2.2091389993231736e-2 -1.7908610006768255e-2,-3.9999999999999994e-2 -3.999999999999999e-2 -3.9999999999999994e-2c -2.2091389993231736e-2,-1.3527075021963557e-18 -3.9999999999999994e-2,1.790861000676825e-2 -3.9999999999999994e-2 3.999999999999998e-2c -2.7054150043927113e-18,2.2091389993231736e-2 1.790861000676825e-2,3.9999999999999994e-2 3.999999999999997e-2 3.9999999999999994e-2c 2.2091389993231736e-2,4.058122506589067e-18 3.9999999999999994e-2,-1.7908610006768248e-2 4.0000000000000015e-2 -3.999999999999998e-2Z" /></g></g><g transform="matrix(43.99411253229254,0.0,0.0,43.99411253229254,250.00000000000003,241.96761892760892)"><g stroke="rgb(0,0,0)" stroke-opacity="1.0" fill="rgb(0,0,0)" fill-opacity="0.0" stroke-width="1.0e-2" stroke-linecap="butt" stroke-linejoin="miter" font-size="1.0em" stroke-miterlimit="10.0"></g></g><g transform="matrix(43.99411253229254,0.0,0.0,43.99411253229254,250.00000000000003,241.96761892760892)"><g stroke="rgb(0,0,0)" stroke-opacity="1.0" fill="rgb(0,0,0)" fill-opacity="0.0" stroke-width="2.0e-2" stroke-linecap="butt" stroke-linejoin="miter" font-size="1.0em" stroke-miterlimit="10.0"><path d="M 4.834019504180141,4.440892098500626e-16 c 0.0,-0.5522847498307935 -0.44771525016920644,-1.0 -0.9999999999999998 -1.0c -0.5522847498307935,-3.3817687554908895e-17 -1.0,0.4477152501692064 -1.0 0.9999999999999997c -6.763537510981779e-17,0.5522847498307935 0.4477152501692063,1.0 0.9999999999999996 1.0c 0.5522847498307935,1.0145306266472669e-16 1.0,-0.44771525016920627 1.0000000000000002 -0.9999999999999997Z" /></g></g><g transform="matrix(43.99411253229254,0.0,0.0,43.99411253229254,250.00000000000003,241.96761892760892)"><g stroke="rgb(0,0,0)" stroke-opacity="1.0" fill="rgb(255,0,0)" fill-opacity="1.0" stroke-width="0.0" stroke-linecap="butt" stroke-linejoin="miter" font-size="1.0em" stroke-miterlimit="10.0"><path d="M 3.874019504180141,4.440892098500626e-16 c 0.0,-2.2091389993231736e-2 -1.7908610006768255e-2,-3.9999999999999994e-2 -3.999999999999999e-2 -3.9999999999999994e-2c -2.2091389993231736e-2,-1.3527075021963557e-18 -3.9999999999999994e-2,1.790861000676825e-2 -3.9999999999999994e-2 3.999999999999998e-2c -2.7054150043927113e-18,2.2091389993231736e-2 1.790861000676825e-2,3.9999999999999994e-2 3.999999999999997e-2 3.9999999999999994e-2c 2.2091389993231736e-2,4.058122506589067e-18 3.9999999999999994e-2,-1.7908610006768248e-2 4.0000000000000015e-2 -3.999999999999998e-2Z" /></g></g><g transform="matrix(43.99411253229254,0.0,0.0,43.99411253229254,250.00000000000003,241.96761892760892)"><g stroke="rgb(0,0,0)" stroke-opacity="1.0" fill="rgb(0,0,0)" fill-opacity="0.0" stroke-width="1.0e-2" stroke-linecap="butt" stroke-linejoin="miter" font-size="1.0em" stroke-miterlimit="10.0"></g></g><g transform="matrix(43.99411253229254,0.0,0.0,43.99411253229254,250.00000000000003,241.96761892760892)"><g stroke="rgb(0,0,0)" stroke-opacity="1.0" fill="rgb(0,0,0)" fill-opacity="0.0" stroke-width="2.0e-2" stroke-linecap="butt" stroke-linejoin="miter" font-size="1.0em" stroke-miterlimit="10.0"><path d="M 0.8340195041801408,4.440892098500626e-16 c 0.0,-0.5522847498307935 -0.44771525016920644,-1.0 -0.9999999999999998 -1.0c -0.5522847498307935,-3.3817687554908895e-17 -1.0,0.4477152501692064 -1.0 0.9999999999999997c -6.763537510981779e-17,0.5522847498307935 0.4477152501692063,1.0 0.9999999999999996 1.0c 0.5522847498307935,1.0145306266472669e-16 1.0,-0.44771525016920627 1.0000000000000002 -0.9999999999999997Z" /></g></g><g transform="matrix(43.99411253229254,0.0,0.0,43.99411253229254,250.00000000000003,241.96761892760892)"><g stroke="rgb(0,0,0)" stroke-opacity="1.0" fill="rgb(255,0,0)" fill-opacity="1.0" stroke-width="0.0" stroke-linecap="butt" stroke-linejoin="miter" font-size="1.0em" stroke-miterlimit="10.0"><path d="M -0.1259804958198592,4.440892098500626e-16 c 0.0,-2.2091389993231736e-2 -1.7908610006768255e-2,-3.9999999999999994e-2 -3.999999999999999e-2 -3.9999999999999994e-2c -2.2091389993231736e-2,-1.3527075021963557e-18 -3.9999999999999994e-2,1.790861000676825e-2 -3.9999999999999994e-2 3.999999999999998e-2c -2.7054150043927113e-18,2.2091389993231736e-2 1.790861000676825e-2,3.9999999999999994e-2 3.999999999999997e-2 3.9999999999999994e-2c 2.2091389993231736e-2,4.058122506589067e-18 3.9999999999999994e-2,-1.7908610006768248e-2 4.0000000000000015e-2 -3.999999999999998e-2Z" /></g></g><g transform="matrix(43.99411253229254,0.0,0.0,43.99411253229254,250.00000000000003,241.96761892760892)"><g stroke="rgb(0,0,0)" stroke-opacity="1.0" fill="rgb(0,0,0)" fill-opacity="0.0" stroke-width="1.0e-2" stroke-linecap="butt" stroke-linejoin="miter" font-size="1.0em" stroke-miterlimit="10.0"></g></g><g transform="matrix(43.99411253229254,0.0,0.0,43.99411253229254,250.00000000000003,241.96761892760892)"><g stroke="rgb(0,0,0)" stroke-opacity="1.0" fill="rgb(0,0,0)" fill-opacity="0.0" stroke-width="2.0e-2" stroke-linecap="butt" stroke-linejoin="miter" font-size="1.0em" stroke-miterlimit="10.0"><path d="M -3.165980495819859,4.440892098500626e-16 c 0.0,-0.5522847498307935 -0.44771525016920644,-1.0 -0.9999999999999998 -1.0c -0.5522847498307935,-3.3817687554908895e-17 -1.0,0.4477152501692064 -1.0 0.9999999999999997c -6.763537510981779e-17,0.5522847498307935 0.4477152501692063,1.0 0.9999999999999996 1.0c 0.5522847498307935,1.0145306266472669e-16 1.0,-0.44771525016920627 1.0000000000000002 -0.9999999999999997Z" /></g></g><g transform="matrix(43.99411253229254,0.0,0.0,43.99411253229254,250.00000000000003,241.96761892760892)"><g stroke="rgb(0,0,0)" stroke-opacity="1.0" fill="rgb(255,0,0)" fill-opacity="1.0" stroke-width="0.0" stroke-linecap="butt" stroke-linejoin="miter" font-size="1.0em" stroke-miterlimit="10.0"><path d="M -4.125980495819859,4.440892098500626e-16 c 0.0,-2.2091389993231736e-2 -1.7908610006768255e-2,-3.9999999999999994e-2 -3.999999999999999e-2 -3.9999999999999994e-2c -2.2091389993231736e-2,-1.3527075021963557e-18 -3.9999999999999994e-2,1.790861000676825e-2 -3.9999999999999994e-2 3.999999999999998e-2c -2.7054150043927113e-18,2.2091389993231736e-2 1.790861000676825e-2,3.9999999999999994e-2 3.999999999999997e-2 3.9999999999999994e-2c 2.2091389993231736e-2,4.058122506589067e-18 3.9999999999999994e-2,-1.7908610006768248e-2 4.0000000000000015e-2 -3.999999999999998e-2Z" /></g></g><g transform="matrix(43.99411253229254,0.0,0.0,43.99411253229254,250.00000000000003,241.96761892760892)"><g stroke="rgb(0,0,0)" stroke-opacity="1.0" fill="rgb(0,0,0)" fill-opacity="0.0" stroke-width="1.0e-2" stroke-linecap="butt" stroke-linejoin="miter" font-size="1.0em" stroke-miterlimit="10.0"></g></g><g transform="matrix(43.99411253229254,0.0,0.0,43.99411253229254,250.00000000000003,241.96761892760892)"><g stroke="rgb(0,0,0)" stroke-opacity="1.0" fill="rgb(0,0,0)" fill-opacity="0.0" stroke-width="2.0e-2" stroke-linecap="butt" stroke-linejoin="miter" font-size="1.0em" stroke-miterlimit="10.0"><path d="M 4.834019504180141,-3.999999999999999 c 0.0,-0.5522847498307935 -0.44771525016920644,-1.0 -0.9999999999999998 -1.0c -0.5522847498307935,-3.3817687554908895e-17 -1.0,0.4477152501692064 -1.0 0.9999999999999997c -6.763537510981779e-17,0.5522847498307935 0.4477152501692063,1.0 0.9999999999999996 1.0c 0.5522847498307935,1.0145306266472669e-16 1.0,-0.44771525016920627 1.0000000000000002 -0.9999999999999997Z" /></g></g><g transform="matrix(43.99411253229254,0.0,0.0,43.99411253229254,250.00000000000003,241.96761892760892)"><g stroke="rgb(0,0,0)" stroke-opacity="1.0" fill="rgb(255,0,0)" fill-opacity="1.0" stroke-width="0.0" stroke-linecap="butt" stroke-linejoin="miter" font-size="1.0em" stroke-miterlimit="10.0"><path d="M 3.874019504180141,-3.999999999999999 c 0.0,-2.2091389993231736e-2 -1.7908610006768255e-2,-3.9999999999999994e-2 -3.999999999999999e-2 -3.9999999999999994e-2c -2.2091389993231736e-2,-1.3527075021963557e-18 -3.9999999999999994e-2,1.790861000676825e-2 -3.9999999999999994e-2 3.999999999999998e-2c -2.7054150043927113e-18,2.2091389993231736e-2 1.790861000676825e-2,3.9999999999999994e-2 3.999999999999997e-2 3.9999999999999994e-2c 2.2091389993231736e-2,4.058122506589067e-18 3.9999999999999994e-2,-1.7908610006768248e-2 4.0000000000000015e-2 -3.999999999999998e-2Z" /></g></g><g transform="matrix(43.99411253229254,0.0,0.0,43.99411253229254,250.00000000000003,241.96761892760892)"><g stroke="rgb(0,0,0)" stroke-opacity="1.0" fill="rgb(0,0,0)" fill-opacity="0.0" stroke-width="1.0e-2" stroke-linecap="butt" stroke-linejoin="miter" font-size="1.0em" stroke-miterlimit="10.0"></g></g><g transform="matrix(43.99411253229254,0.0,0.0,43.99411253229254,250.00000000000003,241.96761892760892)"><g stroke="rgb(0,0,0)" stroke-opacity="1.0" fill="rgb(0,0,0)" fill-opacity="0.0" stroke-width="2.0e-2" stroke-linecap="butt" stroke-linejoin="miter" font-size="1.0em" stroke-miterlimit="10.0"><path d="M 0.8340195041801408,-3.999999999999999 c 0.0,-0.5522847498307935 -0.44771525016920644,-1.0 -0.9999999999999998 -1.0c -0.5522847498307935,-3.3817687554908895e-17 -1.0,0.4477152501692064 -1.0 0.9999999999999997c -6.763537510981779e-17,0.5522847498307935 0.4477152501692063,1.0 0.9999999999999996 1.0c 0.5522847498307935,1.0145306266472669e-16 1.0,-0.44771525016920627 1.0000000000000002 -0.9999999999999997Z" /></g></g><g transform="matrix(43.99411253229254,0.0,0.0,43.99411253229254,250.00000000000003,241.96761892760892)"><g stroke="rgb(0,0,0)" stroke-opacity="1.0" fill="rgb(255,0,0)" fill-opacity="1.0" stroke-width="0.0" stroke-linecap="butt" stroke-linejoin="miter" font-size="1.0em" stroke-miterlimit="10.0"><path d="M -0.1259804958198592,-3.999999999999999 c 0.0,-2.2091389993231736e-2 -1.7908610006768255e-2,-3.9999999999999994e-2 -3.999999999999999e-2 -3.9999999999999994e-2c -2.2091389993231736e-2,-1.3527075021963557e-18 -3.9999999999999994e-2,1.790861000676825e-2 -3.9999999999999994e-2 3.999999999999998e-2c -2.7054150043927113e-18,2.2091389993231736e-2 1.790861000676825e-2,3.9999999999999994e-2 3.999999999999997e-2 3.9999999999999994e-2c 2.2091389993231736e-2,4.058122506589067e-18 3.9999999999999994e-2,-1.7908610006768248e-2 4.0000000000000015e-2 -3.999999999999998e-2Z" /></g></g><g transform="matrix(43.99411253229254,0.0,0.0,43.99411253229254,250.00000000000003,241.96761892760892)"><g stroke="rgb(0,0,0)" stroke-opacity="1.0" fill="rgb(0,0,0)" fill-opacity="0.0" stroke-width="1.0e-2" stroke-linecap="butt" stroke-linejoin="miter" font-size="1.0em" stroke-miterlimit="10.0"></g></g><g transform="matrix(43.99411253229254,0.0,0.0,43.99411253229254,250.00000000000003,241.96761892760892)"><g stroke="rgb(0,0,0)" stroke-opacity="1.0" fill="rgb(0,0,0)" fill-opacity="0.0" stroke-width="2.0e-2" stroke-linecap="butt" stroke-linejoin="miter" font-size="1.0em" stroke-miterlimit="10.0"><path d="M -3.165980495819859,-3.999999999999999 c 0.0,-0.5522847498307935 -0.44771525016920644,-1.0 -0.9999999999999998 -1.0c -0.5522847498307935,-3.3817687554908895e-17 -1.0,0.4477152501692064 -1.0 0.9999999999999997c -6.763537510981779e-17,0.5522847498307935 0.4477152501692063,1.0 0.9999999999999996 1.0c 0.5522847498307935,1.0145306266472669e-16 1.0,-0.44771525016920627 1.0000000000000002 -0.9999999999999997Z" /></g></g><g transform="matrix(43.99411253229254,0.0,0.0,43.99411253229254,250.00000000000003,241.96761892760892)"><g stroke="rgb(0,0,0)" stroke-opacity="1.0" fill="rgb(255,0,0)" fill-opacity="1.0" stroke-width="0.0" stroke-linecap="butt" stroke-linejoin="miter" font-size="1.0em" stroke-miterlimit="10.0"><path d="M -4.125980495819859,-3.999999999999999 c 0.0,-2.2091389993231736e-2 -1.7908610006768255e-2,-3.9999999999999994e-2 -3.999999999999999e-2 -3.9999999999999994e-2c -2.2091389993231736e-2,-1.3527075021963557e-18 -3.9999999999999994e-2,1.790861000676825e-2 -3.9999999999999994e-2 3.999999999999998e-2c -2.7054150043927113e-18,2.2091389993231736e-2 1.790861000676825e-2,3.9999999999999994e-2 3.999999999999997e-2 3.9999999999999994e-2c 2.2091389993231736e-2,4.058122506589067e-18 3.9999999999999994e-2,-1.7908610006768248e-2 4.0000000000000015e-2 -3.999999999999998e-2Z" /></g></g><g transform="matrix(43.99411253229254,0.0,0.0,43.99411253229254,250.00000000000003,241.96761892760892)"><g stroke="rgb(0,0,0)" stroke-opacity="1.0" fill-opacity="0.0" stroke-width="0.1" stroke-linecap="butt" stroke-linejoin="miter" font-size="1.0em" stroke-miterlimit="10.0"><path d="M -4.165980495819859,-3.999999999999999 c 0.7215593849328009,0.44823150015096347 0.7215593849328009,0.44823150015096347 1.1697908850837644 -0.27332788478183745l 0.13666394239091872,0.5848954425418822 c 0.44823150015096347,-0.7215593849328009 0.44823150015096347,-0.7215593849328009 1.1697908850837644 -0.27332788478183745l 0.13666394239091872,0.5848954425418822 c 0.7215593849328009,0.44823150015096347 0.7215593849328009,0.44823150015096347 1.1697908850837644 -0.27332788478183745" /></g></g><g transform="matrix(43.99411253229254,0.0,0.0,43.99411253229254,250.00000000000003,241.96761892760892)"><g stroke="rgb(0,0,0)" stroke-opacity="1.0" fill="rgb(0,0,0)" fill-opacity="1.0" stroke-width="0.0" stroke-linecap="butt" stroke-linejoin="miter" font-size="1.0em" stroke-miterlimit="10.0"><path d="" /></g></g><g transform="matrix(43.99411253229254,0.0,0.0,43.99411253229254,250.00000000000003,241.96761892760892)"><g stroke="rgb(0,0,0)" stroke-opacity="1.0" fill="rgb(255,255,0)" fill-opacity="1.0" stroke-width="0.0" stroke-linecap="butt" stroke-linejoin="miter" font-size="1.0em" stroke-miterlimit="10.0"><path d="" /></g></g><g transform="matrix(43.99411253229254,0.0,0.0,43.99411253229254,250.00000000000003,241.96761892760892)"><g stroke="rgb(0,0,0)" stroke-opacity="1.0" fill="rgb(255,165,0)" fill-opacity="1.0" stroke-width="0.0" stroke-linecap="butt" stroke-linejoin="miter" font-size="1.0em" stroke-miterlimit="10.0"><path d="M -0.1659802808444321,-3.9999999999999996 l -0.13658414674320218,0.5540467758645671 l -5.337876737036093e-2,-0.24824603802784603 l -0.24619650569727503,6.2150372363755896e-2 l 0.43615941981083817,-0.3679511102004769 Z" /></g></g><g transform="matrix(43.99411253229254,0.0,0.0,43.99411253229254,250.00000000000003,241.96761892760892)"><g stroke="rgb(0,0,0)" stroke-opacity="1.0" fill="rgb(0,0,0)" fill-opacity="1.0" stroke-width="0.0" stroke-linecap="butt" stroke-linejoin="miter" font-size="1.0em" stroke-miterlimit="10.0"><path d="M -0.3559431949579952,-3.6941992621632784 l 1.5135563870811018e-2,7.039023097285949e-2 l -8.49446493990892e-2,-5.276747614265642e-2 l 6.980908552827819e-2,-1.7622754830203063e-2 h -0.0 Z" /></g></g><g transform="matrix(43.99411253229254,0.0,0.0,43.99411253229254,250.00000000000003,241.96761892760892)"><g stroke="rgb(0,0,0)" stroke-opacity="1.0" fill-opacity="0.0" stroke-width="5.0e-2" stroke-linecap="butt" stroke-linejoin="miter" font-size="1.0em" stroke-miterlimit="10.0"><path d="M -3.7554251736869544,-0.47785387669071644 c 0.7453679848230158,-0.8675492970312153 1.4907359696460316,-1.7350985940624306 1.8612026466875675 -1.6604481005769978c 0.370466677041536,7.465049348543279e-2 0.3660320463015929,1.091500777487513 0.8302240502884988 0.9306013233437835c 0.46419200398690624,-0.16089945414372936 1.397010642700662,-1.4995486464332688 1.8612026466875675 -1.6604481005769978c 0.4641920039869058,-0.16089945414372897 0.4597573732469629,0.8559508298583509 0.8302240502884989 0.9306013233437838c 0.37046667704153624,7.465049348543298e-2 1.1158346618645518,-0.7928988035457822 1.8612026466875686 -1.660448100576998" /></g></g><g transform="matrix(43.99411253229254,0.0,0.0,43.99411253229254,250.00000000000003,241.96761892760892)"><g stroke="rgb(0,0,0)" stroke-opacity="1.0" fill="rgb(0,0,0)" fill-opacity="1.0" stroke-width="0.0" stroke-linecap="butt" stroke-linejoin="miter" font-size="1.0em" stroke-miterlimit="10.0"><path d="M -3.806971384836023,-0.4562208437046637 l 3.792491084846959e-2,3.258375572483371e-2 l 3.258375572483372e-2,-3.7924910848469585e-2 l -3.792491084846958e-2,-3.258375572483373e-2 l -3.258375572483374e-2,3.79249108484696e-2 Z" /></g></g><g transform="matrix(43.99411253229254,0.0,0.0,43.99411253229254,250.00000000000003,241.96761892760892)"><g stroke="rgb(0,0,0)" stroke-opacity="1.0" fill="rgb(0,0,0)" fill-opacity="1.0" stroke-width="0.0" stroke-linecap="butt" stroke-linejoin="miter" font-size="1.0em" stroke-miterlimit="10.0"><path d="M -4.100812984370192,-7.584982169693882e-2 c 8.916681316494898e-2,7.660900431743081e-2 0.5716891553645865,-0.3046166712091016 0.6498901691041873 -0.3956364572454284c 7.820101373960099e-2,-9.101978603632703e-2 -0.24791930098083476,0.10816631741755141 -0.3370861141457837 3.155731310012047e-2c -8.916681316494895e-2,-7.660900431743081e-2 5.8619875225588786e-2,-0.4290131164061709 -1.958113851401222e-2 -0.33799333036984386c -7.820101373960092e-2,9.1019786036327e-2 -0.38238972960934037,0.625463470197721 -0.29322291644439136 0.7020724745151519Z" /></g></g><g transform="matrix(43.99411253229254,0.0,0.0,43.99411253229254,250.00000000000003,241.96761892760892)"><g stroke="rgb(0,0,0)" stroke-opacity="1.0" fill="rgb(0,0,0)" fill-opacity="1.0" stroke-width="0.0" stroke-linecap="butt" stroke-linejoin="miter" font-size="1.0em" stroke-miterlimit="10.0"><path d="M 3.834018677635984,-3.99999958672792 c 8.916681316494898e-2,7.660900431743081e-2 -0.2150219027047905,0.611052688478825 -0.29322291644439125 0.7020724745151518c -7.820101373960094e-2,9.101978603632706e-2 6.958567465093668e-2,-0.26138432605241313 -1.9581138514012386e-2 -0.3379933303698439c -8.916681316494898e-2,-7.660900431743078e-2 -0.4152871278853847,0.12257709913644774 -0.33708611414578366 3.1557313100120665e-2c 7.820101373960092e-2,-9.1019786036327e-2 0.5607233559392383,-0.4722454615628594 0.6498901691041873 -0.3956364572454285Z" /></g></g><g transform="matrix(43.99411253229254,0.0,0.0,43.99411253229254,250.00000000000003,241.96761892760892)"><g stroke="rgb(0,0,0)" stroke-opacity="1.0" fill="rgb(0,0,0)" fill-opacity="1.0" stroke-width="0.0" stroke-linecap="butt" stroke-linejoin="miter" font-size="1.0em" stroke-miterlimit="10.0"><path d="M 3.5022521672533453,-3.6522123204450287 l 3.792491084846958e-2,3.258375572483373e-2 l -3.258375572483372e-2,3.7924910848469585e-2 l -3.792491084846959e-2,-3.258375572483371e-2 l 3.2583755724833734e-2,-3.7924910848469606e-2 Z" /></g></g><g transform="matrix(43.99411253229254,0.0,0.0,43.99411253229254,250.00000000000003,241.96761892760892)"><g stroke="rgb(0,0,0)" stroke-opacity="1.0" fill-opacity="0.0" stroke-width="3.0e-2" stroke-linecap="butt" stroke-linejoin="miter" font-size="1.0em" stroke-miterlimit="10.0"><path d="M -4.165980495819859,-3.999999999999999 c 0.9095280327758608,3.2048981748229646 4.244929489003322,5.065663328473142 7.449827663826286 4.156135295697283" /></g></g><g transform="matrix(43.99411253229254,0.0,0.0,43.99411253229254,250.00000000000003,241.96761892760892)"><g stroke="rgb(0,0,0)" stroke-opacity="1.0" fill="rgb(0,0,0)" fill-opacity="1.0" stroke-width="0.0" stroke-linecap="butt" stroke-linejoin="miter" font-size="1.0em" stroke-miterlimit="10.0"><path d="" /></g></g><g transform="matrix(43.99411253229254,0.0,0.0,43.99411253229254,250.00000000000003,241.96761892760892)"><g stroke="rgb(0,0,0)" stroke-opacity="1.0" fill="rgb(0,0,0)" fill-opacity="1.0" stroke-width="0.0" stroke-linecap="butt" stroke-linejoin="miter" font-size="1.0em" stroke-miterlimit="10.0"><path d="" /></g></g><g transform="matrix(43.99411253229254,0.0,0.0,43.99411253229254,250.00000000000003,241.96761892760892)"><g stroke="rgb(0,0,0)" stroke-opacity="1.0" fill="rgb(0,0,0)" fill-opacity="1.0" stroke-width="0.0" stroke-linecap="butt" stroke-linejoin="miter" font-size="1.0em" stroke-miterlimit="10.0"><path d="M 3.834019727748216,1.1178403799827485e-7 c -0.19240212598361883,5.4602398454497096e-2 -0.4822433737487382,0.28386337112294424 -0.5796824955302388 0.4585219453368944l 3.548710353933754e-2,-0.30408304047199536 l -0.1899260084042366,-0.24011235151890603 c 0.1746585742139501,9.743912178150059e-2 0.541719274411519,0.14027584510850408 0.7341214003951378 8.567344665400695e-2v 5.551115123125783e-17 Z" /></g></g><g transform="matrix(43.99411253229254,0.0,0.0,43.99411253229254,250.00000000000003,241.96761892760892)"><g stroke="rgb(0,0,0)" stroke-opacity="1.0" fill="rgb(0,0,0)" fill-opacity="1.0" stroke-width="0.0" stroke-linecap="butt" stroke-linejoin="miter" font-size="1.0em" stroke-miterlimit="10.0"><path d="M 3.2898243357573147,0.15443901664893703 l -1.8819878668000674e-3,1.6126438497117847e-2 l -8.19035976817457e-3,-2.8860318897542852e-2 l 1.0072347634974638e-2,1.2733880400425003e-2 v 1.734723475976807e-18 Z" /></g></g><g transform="matrix(43.99411253229254,0.0,0.0,43.99411253229254,250.00000000000003,241.96761892760892)"><g stroke="rgb(0,0,0)" stroke-opacity="1.0" fill-opacity="0.0" stroke-width="0.1" stroke-linecap="butt" stroke-linejoin="miter" font-size="1.0em" stroke-miterlimit="10.0"><path d="M -4.225195881045615,0.5988857118890342 c -6.13125136761577e-2,0.6200954069734006 -0.1226250273523154,1.2401908139468012 -6.790659074072332e-2 1.319443391723762c 5.4718436611592085e-2,7.925257777696053e-2 0.22546782351093395,-0.38233767364251886 0.2774699964928971 -0.250307360196608c 5.200217298196314e-2,0.13203031344591118 -1.4742867953452414e-2,0.8576811917572127 -8.148790888886796e-2 1.583332070068514" /></g></g><g transform="matrix(43.99411253229254,0.0,0.0,43.99411253229254,250.00000000000003,241.96761892760892)"><g stroke="rgb(0,0,0)" stroke-opacity="1.0" fill="rgb(0,0,0)" fill-opacity="1.0" stroke-width="0.0" stroke-linecap="butt" stroke-linejoin="miter" font-size="1.0em" stroke-miterlimit="10.0"><path d="M -4.220098363625267,0.5473310299847769 l -5.48548837826005e-2,4.66348757401293e-2 l 9.951473272450484e-2,9.839612328255998e-3 l -4.465984894190434e-2,-5.64744880683853e-2 v 6.938893903907228e-18 Z" /></g></g><g transform="matrix(43.99411253229254,0.0,0.0,43.99411253229254,250.00000000000003,241.96761892760892)"><g stroke="rgb(0,0,0)" stroke-opacity="1.0" fill="rgb(0,0,0)" fill-opacity="1.0" stroke-width="0.0" stroke-linecap="butt" stroke-linejoin="miter" font-size="1.0em" stroke-miterlimit="10.0"><path d="M -4.175820108148115,9.951473272450523e-2 l -0.28609994325437776,0.653400988779322 l 0.2418216877772259,-0.2055846915190503 l 0.1968780043324574,0.2489615341302308 l -0.15259974885530553,-0.6967778313905024 Z" /></g></g><g transform="matrix(43.99411253229254,0.0,0.0,43.99411253229254,250.00000000000003,241.96761892760892)"><g stroke="rgb(0,0,0)" stroke-opacity="1.0" fill="rgb(0,0,0)" fill-opacity="1.0" stroke-width="0.0" stroke-linecap="butt" stroke-linejoin="miter" font-size="1.0em" stroke-miterlimit="10.0"><path d="M -4.156821204151096,3.9004200488050857 l -0.20981068713019002,-0.9276249095153877 l 0.26476643714276626,0.3301469889688998 l 0.3205480799698997,-0.2763100233254596 l -0.37550382998247595,0.8737879438719475 Z" /></g></g><g transform="matrix(43.99411253229254,0.0,0.0,43.99411253229254,250.00000000000003,241.96761892760892)"><g stroke="rgb(0,0,0)" stroke-opacity="1.0" fill="rgb(0,0,0)" fill-opacity="1.0" stroke-width="0.0" stroke-linecap="butt" stroke-linejoin="miter" font-size="1.0em" stroke-miterlimit="10.0"><path d="M -4.10186545413852,3.302942128258598 l -4.5044756755996715e-2,-5.616796060827732e-2 l 9.957965342441462e-2,9.159291668762698e-3 l -5.4534896668417904e-2,4.700866893951462e-2 h -0.0 Z" /></g></g><g transform="matrix(43.99411253229254,0.0,0.0,43.99411253229254,250.00000000000003,241.96761892760892)"><g stroke="rgb(0,0,0)" stroke-opacity="1.0" fill-opacity="0.0" stroke-width="0.2" stroke-linecap="butt" stroke-linejoin="miter" font-size="1.0em" stroke-miterlimit="10.0"><path d="M 4.3327428445955,3.503668355813385 c 1.1072179663086428,-1.1019081505855348 1.111522422434857,-2.892758707990258 9.614271849322287e-3 -3.999976674298901c -1.1019081505855344,-1.1072179663086423 -2.892758707990257,-1.1115224224348565 -3.9999766742988996 -9.61427184932273e-3" /></g></g><g transform="matrix(43.99411253229254,0.0,0.0,43.99411253229254,250.00000000000003,241.96761892760892)"><g stroke="rgb(0,0,0)" stroke-opacity="1.0" fill="rgb(0,0,0)" fill-opacity="1.0" stroke-width="0.0" stroke-linecap="butt" stroke-linejoin="miter" font-size="1.0em" stroke-miterlimit="10.0"><path d="M 4.259302097890938,3.5767569073373826 l 0.14398126214833157,-2.2081192388643534e-3 l -0.14108103088753915,-0.14176086457026565 l -2.9002312607924324e-3,0.14396898380913 h 1.3877787807814457e-17 Z" /></g></g><g transform="matrix(43.99411253229254,0.0,0.0,43.99411253229254,250.00000000000003,241.96761892760892)"><g stroke="rgb(0,0,0)" stroke-opacity="1.0" fill="rgb(0,0,0)" fill-opacity="1.0" stroke-width="0.0" stroke-linecap="butt" stroke-linejoin="miter" font-size="1.0em" stroke-miterlimit="10.0"><path d="M 3.834019504180141,4.0 l 0.8484329061970259,-0.42973259228215643 l -0.423150312486229,6.4894996195387356e-3 l 8.52356581665692e-3,-0.42311422735270243 l -0.4338061595274539,0.8463573200153202 Z" /></g></g><g transform="matrix(43.99411253229254,0.0,0.0,43.99411253229254,250.00000000000003,241.96761892760892)"><g stroke="rgb(0,0,0)" stroke-opacity="1.0" fill="rgb(0,0,0)" fill-opacity="1.0" stroke-width="0.0" stroke-linecap="butt" stroke-linejoin="miter" font-size="1.0em" stroke-miterlimit="10.0"><path d="M -0.16598027880931432,2.1701054347955662e-7 l 0.3556039489435021,-0.8527011329235237 c -6.637289186387785e-4,0.276141577253115 0.2226551909337232,0.500536614303875 0.4987967681868382 0.5012003432225137l -0.8544007171303405,0.35150078970101 l 2.220446049250313e-16,-5.551115123125783e-17 Z" /></g></g><g transform="matrix(43.99411253229254,0.0,0.0,43.99411253229254,250.00000000000003,241.96761892760892)"><g stroke="rgb(0,0,0)" stroke-opacity="1.0" fill="rgb(0,0,0)" fill-opacity="1.0" stroke-width="0.0" stroke-linecap="butt" stroke-linejoin="miter" font-size="1.0em" stroke-miterlimit="10.0"><path d="M 0.41292095758969205,-0.43504215804970586 c -5.609426317836362e-2,-3.727000595063063e-2 -0.1040811083297706,-8.54880875301846e-2 -0.14108103088753912 -0.14176086457026582l 0.14108103088753912,0.14176086457026582 Z" /></g></g><g transform="matrix(43.99411253229254,0.0,0.0,43.99411253229254,250.00000000000003,241.96761892760892)"><g stroke="rgb(0,0,0)" stroke-opacity="1.0" fill-opacity="0.0" stroke-width="3.0e-2" stroke-linecap="butt" stroke-linejoin="miter" stroke-dasharray="0.1,0.2,0.3,0.1" stroke-dashoffset="0.0" font-size="1.0em" stroke-miterlimit="10.0"><path d="M 7.672460249262503e-2,4.0 h 3.532294162511826 " /></g></g><g transform="matrix(43.99411253229254,0.0,0.0,43.99411253229254,250.00000000000003,241.96761892760892)"><g stroke="rgb(0,0,0)" stroke-opacity="1.0" fill="rgb(0,0,0)" fill-opacity="1.0" stroke-width="0.0" stroke-linecap="butt" stroke-linejoin="miter" font-size="1.0em" stroke-miterlimit="10.0"><path d="" /></g></g><g transform="matrix(43.99411253229254,0.0,0.0,43.99411253229254,250.00000000000003,241.96761892760892)"><g stroke="rgb(0,0,0)" stroke-opacity="1.0" fill="rgb(0,0,0)" fill-opacity="1.0" stroke-width="0.0" stroke-linecap="butt" stroke-linejoin="miter" font-size="1.0em" stroke-miterlimit="10.0"><path d="M 7.672460249262503e-2,3.911832212156129 l -2.6945678834043217e-17,0.17633557568774197 h -0.24270509831248419 l -2.6945678834043217e-17,-0.17633557568774197 h 0.24270509831248424 Z" /></g></g><g transform="matrix(43.99411253229254,0.0,0.0,43.99411253229254,250.00000000000003,241.96761892760892)"><g stroke="rgb(0,0,0)" stroke-opacity="1.0" fill="rgb(0,0,0)" fill-opacity="1.0" stroke-width="0.0" stroke-linecap="butt" stroke-linejoin="miter" font-size="1.0em" stroke-miterlimit="10.0"><path d="M 3.8340187650044513,4.0 l -0.22499999999999998,0.1299038105676658 v -0.2598076211353316 l 0.22499999999999998,0.1299038105676658 Z" /></g></g><g transform="matrix(43.99411253229254,0.0,0.0,43.99411253229254,250.00000000000003,241.96761892760892)"><g stroke="rgb(0,0,0)" stroke-opacity="1.0" fill="rgb(0,0,0)" fill-opacity="1.0" stroke-width="0.0" stroke-linecap="butt" stroke-linejoin="miter" font-size="1.0em" stroke-miterlimit="10.0"><path d="" /></g></g></g></svg>