<?xml version="1.0" encoding="UTF-8"?>
<!DOCTYPE svg PUBLIC "-//W3C//DTD SVG 1.1//EN"
    "http://www.w3.org/Graphics/SVG/1.1/DTD/svg11.dtd">
<svg xmlns="http://www.w3.org/2000/svg" xmlns:xlink="http://www.w3.org/1999/xlink" version="1.1" width="750.0000000000001" height="730.8294381152425" font-size="1" viewBox="0 0 750 731"><g><g transform="matrix(135.43542167969318,0.0,0.0,135.43542167969318,375.00000000000006,365.4147190576212)"><g stroke="rgb(0,0,0)" stroke-opacity="1.0" fill="url(#gradient0)" stroke-width="0.0" stroke-linecap="butt" stroke-linejoin="miter" font-size="1.0em" stroke-miterlimit="10.0"><path d="M 1.0171338980680111,1.4956872886612853 l 1.0530111373640582e-16,0.5 l 1.5,1.8369701987210297e-16 l 2.2776579365114115e-16,-0.5 l -1.5000000000000002,-2.220446049250313e-16 Z" /><defs><linearGradient id="gradient0" x1="0.0" y1="0.0" x2="1.0" y2="0.0" gradientTransform="rotate(-180.0,.5,.5)"><stop stop-color="rgb(255,0,0)" offset="0.0" /><stop stop-color="rgb(255,255,255)" offset="0.5" /><stop stop-color="rgb(0,0,255)" offset="1.0" /></linearGradient></defs></g></g><g transform="matrix(135.43542167969318,0.0,0.0,135.43542167969318,375.00000000000006,365.4147190576212)"><g stroke="rgb(0,0,0)" stroke-opacity="1.0" fill="url(#gradient1)" stroke-width="0.0" stroke-linecap="butt" stroke-linejoin="miter" font-size="1.0em" stroke-miterlimit="10.0"><path d="M -0.6186854006989191,1.2277048312596461 l -0.19134171618254475,0.4619397662556434 l 1.38581929876693,0.5740251485476348 l 0.19134171618254509,-0.4619397662556433 l -1.3858192987669302,-0.5740251485476349 Z" /><defs><linearGradient id="gradient1" x1="0.0" y1="0.0" x2="1.0" y2="0.0" gradientTransform="rotate(-157.5,.5,.5)"><stop stop-color="rgb(255,0,0)" offset="0.0" /><stop stop-color="rgb(255,255,255)" offset="0.5" /><stop stop-color="rgb(0,0,255)" offset="1.0" /></linearGradient></defs></g></g><g transform="matrix(135.43542167969318,0.0,0.0,135.43542167969318,375.00000000000006,365.4147190576212)"><g stroke="rgb(0,0,0)" stroke-opacity="1.0" fill="url(#gradient2)" stroke-width="0.0" stroke-linecap="butt" stroke-linejoin="miter" font-size="1.0em" stroke-miterlimit="10.0"><path d="M -2.1206872886612853,1.0385805074747376 l -0.3535533905932737,0.35355339059327384 l 1.0606601717798212,1.0606601717798214 l 0.3535533905932739,-0.3535533905932736 l -1.0606601717798214,-1.0606601717798219 Z" /><defs><linearGradient id="gradient2" x1="0.0" y1="0.0" x2="1.0" y2="0.0" gradientTransform="rotate(-135.0,.5,.5)"><stop stop-color="rgb(255,0,0)" offset="0.0" /><stop stop-color="rgb(255,255,255)" offset="0.5" /><stop stop-color="rgb(0,0,255)" offset="1.0" /></linearGradient></defs></g></g><g transform="matrix(135.43542167969318,0.0,0.0,135.43542167969318,375.00000000000006,365.4147190576212)"><g stroke="rgb(0,0,0)" stroke-opacity="1.0" fill="url(#gradient3)" stroke-width="0.0" stroke-linecap="butt" stroke-linejoin="miter" font-size="1.0em" stroke-miterlimit="10.0"><path d="M 0.2127883255892713,-0.7885805074747377 l -0.4619397662556433,0.19134171618254503 l 0.5740251485476346,1.38581929876693 l 0.4619397662556434,-0.1913417161825447 l -0.5740251485476348,-1.3858192987669304 Z" /><defs><linearGradient id="gradient3" x1="0.0" y1="0.0" x2="1.0" y2="0.0" gradientTransform="rotate(-112.5,.5,.5)"><stop stop-color="rgb(255,0,0)" offset="0.0" /><stop stop-color="rgb(255,255,255)" offset="0.5" /><stop stop-color="rgb(0,0,255)" offset="1.0" /></linearGradient></defs></g></g><g transform="matrix(135.43542167969318,0.0,0.0,135.43542167969318,375.00000000000006,365.4147190576212)"><g stroke="rgb(0,0,0)" stroke-opacity="1.0" fill="url(#gradient4)" stroke-width="0.0" stroke-linecap="butt" stroke-linejoin="miter" font-size="1.0em" stroke-miterlimit="10.0"><path d="M -0.4991514406663721,-0.7500000000000004 l -0.5,1.3591728371508964e-16 l -9.184850993605148e-17,1.5 l 0.5,1.9714962367245732e-16 l 1.1102230246251565e-16,-1.5000000000000004 Z" /><defs><linearGradient id="gradient4" x1="0.0" y1="0.0" x2="1.0" y2="0.0" gradientTransform="rotate(-90.0,.5,.5)"><stop stop-color="rgb(255,0,0)" offset="0.0" /><stop stop-color="rgb(255,255,255)" offset="0.5" /><stop stop-color="rgb(0,0,255)" offset="1.0" /></linearGradient></defs></g></g><g transform="matrix(135.43542167969318,0.0,0.0,135.43542167969318,375.00000000000006,365.4147190576212)"><g stroke="rgb(0,0,0)" stroke-opacity="1.0" fill="url(#gradient5)" stroke-width="0.0" stroke-linecap="butt" stroke-linejoin="miter" font-size="1.0em" stroke-miterlimit="10.0"><path d="M -1.2491514406663722,-0.5972387912921928 l -0.4619397662556434,-0.19134171618254475 l -0.5740251485476348,1.38581929876693 l 0.4619397662556433,0.19134171618254509 l 0.5740251485476349,-1.3858192987669302 Z" /><defs><linearGradient id="gradient5" x1="0.0" y1="0.0" x2="1.0" y2="0.0" gradientTransform="rotate(-67.5,.5,.5)"><stop stop-color="rgb(255,0,0)" offset="0.0" /><stop stop-color="rgb(255,255,255)" offset="0.5" /><stop stop-color="rgb(0,0,255)" offset="1.0" /></linearGradient></defs></g></g><g transform="matrix(135.43542167969318,0.0,0.0,135.43542167969318,375.00000000000006,365.4147190576212)"><g stroke="rgb(0,0,0)" stroke-opacity="1.0" fill="url(#gradient6)" stroke-width="0.0" stroke-linecap="butt" stroke-linejoin="miter" font-size="1.0em" stroke-miterlimit="10.0"><path d="M 2.4742406792545593,-2.0992406792545593 l -0.35355339059327384,-0.3535533905932737 l -1.0606601717798214,1.0606601717798212 l 0.3535533905932736,0.3535533905932739 l 1.0606601717798219,-1.0606601717798214 Z" /><defs><linearGradient id="gradient6" x1="0.0" y1="0.0" x2="1.0" y2="0.0" gradientTransform="rotate(-45.0,.5,.5)"><stop stop-color="rgb(255,0,0)" offset="0.0" /><stop stop-color="rgb(255,255,255)" offset="0.5" /><stop stop-color="rgb(0,0,255)" offset="1.0" /></linearGradient></defs></g></g><g transform="matrix(135.43542167969318,0.0,0.0,135.43542167969318,375.00000000000006,365.4147190576212)"><g stroke="rgb(0,0,0)" stroke-opacity="1.0" fill="url(#gradient7)" stroke-width="0.0" stroke-linecap="butt" stroke-linejoin="miter" font-size="1.0em" stroke-miterlimit="10.0"><path d="M 0.8100271168814636,-1.801729979807281 l -0.19134171618254506,-0.4619397662556433 l -1.38581929876693,0.5740251485476346 l 0.19134171618254472,0.4619397662556434 l 1.3858192987669302,-0.5740251485476348 Z" /><defs><linearGradient id="gradient7" x1="0.0" y1="0.0" x2="1.0" y2="0.0" gradientTransform="rotate(-22.5,.5,.5)"><stop stop-color="rgb(255,0,0)" offset="0.0" /><stop stop-color="rgb(255,255,255)" offset="0.5" /><stop stop-color="rgb(0,0,255)" offset="1.0" /></linearGradient></defs></g></g><g transform="matrix(135.43542167969318,0.0,0.0,135.43542167969318,375.00000000000006,365.4147190576212)"><g stroke="rgb(0,0,0)" stroke-opacity="1.0" fill="url(#gradient8)" stroke-width="0.0" stroke-linecap="butt" stroke-linejoin="miter" font-size="1.0em" stroke-miterlimit="10.0"><path d="M -1.0171338980680111,-1.4956872886612853 l -1.6653345369377348e-16,-0.5 h -1.5 l -1.6653345369377348e-16,0.5 h 1.5000000000000004 Z" /><defs><linearGradient id="gradient8" x1="0.0" y1="0.0" x2="1.0" y2="0.0" gradientTransform="rotate(0.0,.5,.5)"><stop stop-color="rgb(255,0,0)" offset="0.0" /><stop stop-color="rgb(255,255,255)" offset="0.5" /><stop stop-color="rgb(0,0,255)" offset="1.0" /></linearGradient></defs></g></g></g></svg>