<?xml version="1.0" encoding="UTF-8"?>
<!DOCTYPE svg PUBLIC "-//W3C//DTD SVG 1.1//EN"
    "http://www.w3.org/Graphics/SVG/1.1/DTD/svg11.dtd">
<svg xmlns="http://www.w3.org/2000/svg" xmlns:xlink="http://www.w3.org/1999/xlink" version="1.1" width="750.0" height="785.079986320772" font-size="1" viewBox="0 0 750 785"><g><g transform="matrix(153.9828704426739,0.0,0.0,153.9828704426739,375.00000000000006,392.539993160386)"><g stroke="rgb(0,0,0)" stroke-opacity="1.0" fill="url(#gradient0)" stroke-width="0.0" stroke-linecap="butt" stroke-linejoin="miter" font-size="1.0em" stroke-miterlimit="10.0"><path d="M 1.0068348730314618,1.1103882636247357 l -1.1442377452219667e-17,1.0 l 1.0,1.2246467991473532e-16 l 2.33486982377251e-16,-1.0 l -1.0000000000000002,-2.220446049250313e-16 Z" /><defs><linearGradient id="gradient0" x1="0.9999999999999999" y1="1.2246467991473532e-16" x2="0.0" y2="0.0"><stop stop-color="rgb(255,0,0)" offset="0.0" /><stop stop-color="rgb(255,255,255)" offset="0.5" /><stop stop-color="rgb(0,0,255)" offset="1.0" /></linearGradient></defs></g></g><g transform="matrix(153.9828704426739,0.0,0.0,153.9828704426739,375.00000000000006,392.539993160386)"><g stroke="rgb(0,0,0)" stroke-opacity="1.0" fill="url(#gradient1)" stroke-width="0.0" stroke-linecap="butt" stroke-linejoin="miter" font-size="1.0em" stroke-miterlimit="10.0"><path d="M -0.16704465947982505,0.9571067811865475 l -0.3826834323650897,0.9238795325112867 l 0.9238795325112867,0.38268343236508984 l 0.38268343236508995,-0.9238795325112867 l -0.923879532511287,-0.38268343236508984 Z" /><defs><linearGradient id="gradient1" x1="0.9238795325112867" y1="0.38268343236508984" x2="0.0" y2="0.0"><stop stop-color="rgb(255,0,0)" offset="0.0" /><stop stop-color="rgb(255,255,255)" offset="0.5" /><stop stop-color="rgb(0,0,255)" offset="1.0" /></linearGradient></defs></g></g><g transform="matrix(153.9828704426739,0.0,0.0,153.9828704426739,375.00000000000006,392.539993160386)"><g stroke="rgb(0,0,0)" stroke-opacity="1.0" fill="url(#gradient2)" stroke-width="0.0" stroke-linecap="butt" stroke-linejoin="miter" font-size="1.0em" stroke-miterlimit="10.0"><path d="M -1.5068348730314622,0.9032814824381882 l -0.7071067811865475,0.7071067811865476 l 0.7071067811865475,0.7071067811865476 l 0.7071067811865477,-0.7071067811865474 l -0.7071067811865477,-0.7071067811865478 Z" /><defs><linearGradient id="gradient2" x1="0.7071067811865474" y1="0.7071067811865476" x2="0.0" y2="0.0"><stop stop-color="rgb(255,0,0)" offset="0.0" /><stop stop-color="rgb(255,255,255)" offset="0.5" /><stop stop-color="rgb(0,0,255)" offset="1.0" /></linearGradient></defs></g></g><g transform="matrix(153.9828704426739,0.0,0.0,153.9828704426739,375.00000000000006,392.539993160386)"><g stroke="rgb(0,0,0)" stroke-opacity="1.0" fill="url(#gradient3)" stroke-width="0.0" stroke-linecap="butt" stroke-linejoin="miter" font-size="1.0em" stroke-miterlimit="10.0"><path d="M 1.5703261419180128,-0.6532814824381883 l -0.9238795325112867,0.38268343236508984 l 0.3826834323650897,0.9238795325112867 l 0.9238795325112867,-0.3826834323650896 l -0.3826834323650897,-0.923879532511287 Z" /><defs><linearGradient id="gradient3" x1="0.38268343236508967" y1="0.9238795325112867" x2="0.0" y2="0.0"><stop stop-color="rgb(255,0,0)" offset="0.0" /><stop stop-color="rgb(255,255,255)" offset="0.5" /><stop stop-color="rgb(0,0,255)" offset="1.0" /></linearGradient></defs></g></g><g transform="matrix(153.9828704426739,0.0,0.0,153.9828704426739,375.00000000000006,392.539993160386)"><g stroke="rgb(0,0,0)" stroke-opacity="1.0" fill="url(#gradient4)" stroke-width="0.0" stroke-linecap="butt" stroke-linejoin="miter" font-size="1.0em" stroke-miterlimit="10.0"><path d="M 0.39644660940672605,-0.5000000000000001 l -1.0,4.9789962505147994e-17 l -6.123233995736766e-17,1.0 l 1.0,1.7225464241988333e-16 v -1.0000000000000002 Z" /><defs><linearGradient id="gradient4" x1="0.0" y1="0.9999999999999999" x2="6.123233995736766e-17" y2="0.0"><stop stop-color="rgb(255,0,0)" offset="0.0" /><stop stop-color="rgb(255,255,255)" offset="0.5" /><stop stop-color="rgb(0,0,255)" offset="1.0" /></linearGradient></defs></g></g><g transform="matrix(153.9828704426739,0.0,0.0,153.9828704426739,375.00000000000006,392.539993160386)"><g stroke="rgb(0,0,0)" stroke-opacity="1.0" fill="url(#gradient5)" stroke-width="0.0" stroke-linecap="butt" stroke-linejoin="miter" font-size="1.0em" stroke-miterlimit="10.0"><path d="M -0.853553390593274,-0.27059805007309856 l -0.9238795325112867,-0.3826834323650897 l -0.38268343236508984,0.9238795325112867 l 0.9238795325112867,0.38268343236508995 l 0.38268343236508984,-0.923879532511287 Z" /><defs><linearGradient id="gradient5" x1="0.0" y1="0.9238795325112867" x2="0.38268343236508984" y2="0.0"><stop stop-color="rgb(255,0,0)" offset="0.0" /><stop stop-color="rgb(255,255,255)" offset="0.5" /><stop stop-color="rgb(0,0,255)" offset="1.0" /></linearGradient></defs></g></g><g transform="matrix(153.9828704426739,0.0,0.0,153.9828704426739,375.00000000000006,392.539993160386)"><g stroke="rgb(0,0,0)" stroke-opacity="1.0" fill="url(#gradient6)" stroke-width="0.0" stroke-linecap="butt" stroke-linejoin="miter" font-size="1.0em" stroke-miterlimit="10.0"><path d="M 2.2139416542180093,-1.6103882636247357 l -0.7071067811865476,-0.7071067811865475 l -0.7071067811865476,0.7071067811865475 l 0.7071067811865474,0.7071067811865477 l 0.7071067811865478,-0.7071067811865477 Z" /><defs><linearGradient id="gradient6" x1="0.0" y1="0.7071067811865474" x2="0.7071067811865476" y2="0.0"><stop stop-color="rgb(255,0,0)" offset="0.0" /><stop stop-color="rgb(255,255,255)" offset="0.5" /><stop stop-color="rgb(0,0,255)" offset="1.0" /></linearGradient></defs></g></g><g transform="matrix(153.9828704426739,0.0,0.0,153.9828704426739,375.00000000000006,392.539993160386)"><g stroke="rgb(0,0,0)" stroke-opacity="1.0" fill="url(#gradient7)" stroke-width="0.0" stroke-linecap="butt" stroke-linejoin="miter" font-size="1.0em" stroke-miterlimit="10.0"><path d="M 0.5497280918449144,-1.3397902135516373 l -0.3826834323650899,-0.9238795325112867 l -0.9238795325112867,0.3826834323650898 l 0.38268343236508967,0.9238795325112867 l 0.923879532511287,-0.38268343236508984 Z" /><defs><linearGradient id="gradient7" x1="0.0" y1="0.3826834323650898" x2="0.9238795325112867" y2="0.0"><stop stop-color="rgb(255,0,0)" offset="0.0" /><stop stop-color="rgb(255,255,255)" offset="0.5" /><stop stop-color="rgb(0,0,255)" offset="1.0" /></linearGradient></defs></g></g><g transform="matrix(153.9828704426739,0.0,0.0,153.9828704426739,375.00000000000006,392.539993160386)"><g stroke="rgb(0,0,0)" stroke-opacity="1.0" fill="url(#gradient8)" stroke-width="0.0" stroke-linecap="butt" stroke-linejoin="miter" font-size="1.0em" stroke-miterlimit="10.0"><path d="M -1.0068348730314622,-1.1103882636247357 l -1.1102230246251565e-16,-1.0 h -1.0 l -1.1102230246251565e-16,1.0 h 1.0 Z" /><defs><linearGradient id="gradient8" x1="0.0" y1="-0.0" x2="0.9999999999999999" y2="0.0"><stop stop-color="rgb(255,0,0)" offset="0.0" /><stop stop-color="rgb(255,255,255)" offset="0.5" /><stop stop-color="rgb(0,0,255)" offset="1.0" /></linearGradient></defs></g></g></g></svg>